<svg width="24" height="24" viewBox="0 0 24 24" fill="none" xmlns="http://www.w3.org/2000/svg">
<path d="M3.93127 21.3775C3.93127 22.1462 3.36325 22.6888 2.56911 22.6888C1.82027 22.6888 1.2019 22.2014 1.2019 21.2417V20.7694C1.2019 19.8448 1.64932 19.1728 2.4787 19.0171L3.70384 18.8652V19.3577L2.59428 19.4897C2.0917 19.5902 1.78503 19.9115 1.75483 20.5798C1.9457 20.1979 2.31782 20.0965 2.65973 20.0965C3.39345 20.0963 3.93127 20.6137 3.93127 21.3775ZM3.36828 21.3724C3.36828 20.9101 3.03644 20.5785 2.57414 20.5785C2.10659 20.5785 1.77496 20.9101 1.77496 21.3724C1.77496 21.8448 2.10659 22.1714 2.57414 22.1714C3.03644 22.1714 3.36828 21.8448 3.36828 21.3724Z" fill="#B4B5B8"/>
<path d="M6.92196 21.5283C6.92393 21.4462 6.92196 21.3674 6.91649 21.2914C6.85257 20.4461 6.31672 19.9807 5.59109 19.9807C4.816 19.9807 4.26001 20.5684 4.26001 21.3427C4.26001 22.1563 4.84051 22.6941 5.63159 22.6941C6.21625 22.6941 6.68118 22.3522 6.84228 21.9131H6.28717C6.15934 22.0865 5.94263 22.2169 5.6364 22.2169C5.20584 22.2169 4.87094 21.9352 4.8357 21.5283H6.92196ZM4.83592 21.0912C4.86547 20.7197 5.18111 20.4483 5.59109 20.4483C6.01684 20.4483 6.31672 20.7245 6.33183 21.0912H4.83592Z" fill="#B4B5B8"/>
<path d="M7.11514 22.1462C7.3163 22.1362 7.52732 22.0256 7.52732 21.6086V20.0359H9.5744V22.6436H9.00637V20.5483H8.08527V21.6185C8.08527 22.3419 7.65799 22.6685 7.11011 22.6587L7.11514 22.1462Z" fill="#B4B5B8"/>
<path d="M11.1265 21.2521L12.3764 20.0359H11.7147L11.0236 20.7066L10.6347 21.0842V20.0359H10.6259H10.0999H10.0667V22.6438H10.0999H10.6259H10.6347V21.4206L11.0175 21.8516L11.7202 22.6438H12.381L11.1265 21.2521Z" fill="#B4B5B8"/>
<path d="M14.6492 20.0335L14.5801 20.4209C14.3561 20.1473 13.9713 19.9832 13.625 19.9832C13.6209 19.9832 13.6171 19.9836 13.613 19.9836C13.6069 19.9836 13.601 19.9832 13.5948 19.9832C13.2183 19.9832 12.9117 20.1208 12.6923 20.345C12.6816 20.3557 12.6707 20.366 12.6604 20.3769C12.6542 20.3837 12.6486 20.391 12.6426 20.398C12.4314 20.637 12.313 20.9627 12.313 21.3348C12.313 21.3366 12.3132 21.3381 12.3132 21.3398C12.3132 21.3416 12.313 21.3431 12.313 21.3449C12.313 21.717 12.4314 22.0427 12.6426 22.2817C12.6486 22.2887 12.6542 22.296 12.6604 22.3028C12.6707 22.3139 12.6816 22.324 12.6923 22.3347C12.9117 22.5589 13.2183 22.6965 13.5948 22.6965C13.601 22.6965 13.6069 22.6961 13.613 22.6961C13.6171 22.6961 13.6209 22.6965 13.625 22.6965C13.9713 22.6965 14.3561 22.5324 14.5801 22.2588V22.6462H15.1582V22.6412V20.0385V20.0335H14.6492ZM13.7408 22.1738C13.2483 22.1738 12.8963 21.8271 12.8963 21.3398C12.8963 20.8524 13.2483 20.5059 13.7408 20.5059C14.2285 20.5059 14.5752 20.8677 14.5752 21.3398C14.5752 21.812 14.2283 22.1738 13.7408 22.1738Z" fill="#B4B5B8"/>
<path d="M15.6492 20.0335V20.0385V23.8153V23.8203H16.2273V22.2588C16.4512 22.5324 16.836 22.6965 17.1823 22.6965C17.1864 22.6965 17.1902 22.6961 17.1943 22.6961C17.2005 22.6961 17.2064 22.6965 17.2125 22.6965C17.589 22.6965 17.8957 22.5589 18.115 22.3347C18.1257 22.324 18.1367 22.3137 18.1469 22.3028C18.1531 22.296 18.1588 22.2887 18.1647 22.2817C18.3759 22.0427 18.4943 21.717 18.4943 21.3449C18.4943 21.3431 18.4941 21.3416 18.4941 21.3398C18.4941 21.3381 18.4943 21.3366 18.4943 21.3348C18.4943 20.9627 18.3759 20.637 18.1647 20.398C18.1588 20.391 18.1531 20.3837 18.1469 20.3769C18.1367 20.3658 18.1257 20.3557 18.115 20.345C17.8957 20.1208 17.589 19.9832 17.2125 19.9832C17.2064 19.9832 17.2005 19.9836 17.1943 19.9836C17.1902 19.9836 17.1864 19.9832 17.1823 19.9832C16.836 19.9832 16.4512 20.1473 16.2273 20.4209L16.1581 20.0335H15.6492ZM16.2323 21.3398C16.2323 20.8675 16.5792 20.5059 17.0667 20.5059C17.5592 20.5059 17.9112 20.8526 17.9112 21.3398C17.9112 21.8273 17.5592 22.1738 17.0667 22.1738C16.579 22.1738 16.2323 21.812 16.2323 21.3398Z" fill="#B4B5B8"/>
<path d="M22.7984 21.0172V22.6473H22.2244V21.1632C22.2244 20.6901 21.9828 20.4789 21.6608 20.4789C21.3285 20.4789 21.077 20.7002 21.077 21.1632V22.6473H20.5033V21.1632C20.5033 20.6901 20.2566 20.4789 19.9447 20.4789C19.6076 20.4789 19.3559 20.7002 19.3559 21.1632V22.6473H18.7771V20.0361H19.2819L19.3473 20.4126C19.4983 20.146 19.7485 19.9807 20.136 19.9807C20.4882 19.9807 20.7769 20.1258 20.9328 20.4126C21.1039 20.146 21.3891 19.9807 21.812 19.9807C22.4006 19.9807 22.7984 20.3782 22.7984 21.0172Z" fill="#B4B5B8"/>
<path d="M11.1096 13.37L8.37827 16.0484C8.19528 16.2279 8.19747 16.4582 8.26095 16.614C8.32443 16.7697 8.48334 16.9365 8.73966 16.9373L13.5454 16.9526C13.9152 16.9537 14.2216 16.6539 14.2284 16.2842C14.2288 16.2645 14.229 16.2445 14.229 16.2248C14.2323 15.172 13.8142 14.1419 13.0766 13.3895C12.5396 12.8416 11.6573 12.8331 11.1096 13.37Z" fill="#B4B5B8"/>
<path d="M7.97336 11.3331L4.14822 11.2957C3.89189 11.2931 3.73057 11.4577 3.66534 11.6126C3.60011 11.7676 3.59464 11.9979 3.77523 12.1798L7.1628 15.5888C7.4235 15.8511 7.85209 15.8556 8.11848 15.5989C8.13271 15.5853 8.14694 15.5713 8.16095 15.5575C8.90759 14.8155 9.34056 13.7913 9.35085 12.7377C9.35829 11.9705 8.74036 11.3406 7.97336 11.3331Z" fill="#B4B5B8"/>
<path d="M4.28249 10.7943C4.30219 10.7947 4.32211 10.795 4.34181 10.795C5.39468 10.7982 6.42479 10.3802 7.17712 9.64249C7.72479 9.10555 7.73332 8.2232 7.19638 7.67553L4.51802 4.94419C4.33852 4.7612 4.10825 4.76339 3.9524 4.82687C3.79677 4.89013 3.62997 5.04926 3.62909 5.30558L3.61377 10.1114C3.6129 10.4813 3.91278 10.7875 4.28249 10.7943Z" fill="#B4B5B8"/>
<path d="M5.00883 4.72665C5.75087 5.47329 6.77507 5.90626 7.8286 5.91655C8.5956 5.92399 9.22557 5.30628 9.23301 4.53928L9.27044 0.714136C9.27307 0.457813 9.10846 0.296489 8.95349 0.231259C8.79851 0.166029 8.56824 0.160557 8.38634 0.341143L4.97753 3.72872C4.71529 3.98942 4.7107 4.41801 4.96746 4.6844C4.98103 4.69841 4.99504 4.71264 5.00883 4.72665Z" fill="#B4B5B8"/>
<path d="M12.8909 3.76232L15.6222 1.08396C15.8052 0.904468 15.8031 0.674193 15.7396 0.518342C15.6763 0.36271 15.5172 0.195914 15.2609 0.195038L10.4549 0.179935C10.0852 0.17884 9.7787 0.478722 9.77192 0.848431C9.77148 0.868132 9.77126 0.888051 9.77126 0.907751C9.76798 1.96062 10.1861 2.99073 10.9237 3.74306C11.4609 4.29051 12.3432 4.29927 12.8909 3.76232Z" fill="#B4B5B8"/>
<path d="M16.027 5.79915L19.8521 5.83658C20.1085 5.83921 20.2698 5.6746 20.335 5.51962C20.4002 5.36465 20.4057 5.13437 20.2251 4.95247L16.8376 1.54345C16.5769 1.28121 16.1483 1.27662 15.8819 1.53338C15.8676 1.54695 15.8534 1.56096 15.8396 1.57475C15.093 2.31679 14.66 3.34099 14.6497 4.39452C14.6421 5.16152 15.26 5.79149 16.027 5.79915Z" fill="#B4B5B8"/>
<path d="M19.7178 6.33808C19.6981 6.33764 19.6782 6.33742 19.6585 6.33742C18.6056 6.33414 17.5755 6.75222 16.8232 7.48989C16.2755 8.02683 16.267 8.90919 16.8039 9.45685L19.4823 12.1882C19.6618 12.3712 19.892 12.369 20.0479 12.3055C20.2035 12.2423 20.3703 12.0831 20.3712 11.8268L20.3865 7.02102C20.3874 6.65109 20.0875 6.34464 19.7178 6.33808Z" fill="#B4B5B8"/>
<path d="M18.9916 12.4055C18.2496 11.6589 17.2254 11.2259 16.1719 11.2156C15.4049 11.2082 14.7749 11.8259 14.7674 12.5929L14.73 16.4181C14.7274 16.6744 14.892 16.8357 15.047 16.9009C15.2019 16.9662 15.4322 16.9716 15.6141 16.791L19.0231 13.4035C19.2854 13.1428 19.29 12.7142 19.0332 12.4478C19.0194 12.4338 19.0054 12.4195 18.9916 12.4055Z" fill="#B4B5B8"/>
</svg>
