<svg width="56" height="56" viewBox="0 0 56 56" fill="none" xmlns="http://www.w3.org/2000/svg">
<path d="M46.6673 23.3332C46.6673 34.9835 33.743 47.1168 29.403 50.8642C28.9987 51.1682 28.5065 51.3326 28.0007 51.3326C27.4948 51.3326 27.0026 51.1682 26.5983 50.8642C22.2583 47.1168 9.33398 34.9835 9.33398 23.3332C9.33398 18.3825 11.3006 13.6345 14.8013 10.1338C18.302 6.63317 23.0499 4.6665 28.0007 4.6665C32.9514 4.6665 37.6993 6.63317 41.2 10.1338C44.7007 13.6345 46.6673 18.3825 46.6673 23.3332Z" fill="#009865"/>
<path d="M28.0007 30.3332C31.8666 30.3332 35.0007 27.1992 35.0007 23.3332C35.0007 19.4672 31.8666 16.3332 28.0007 16.3332C24.1347 16.3332 21.0007 19.4672 21.0007 23.3332C21.0007 27.1992 24.1347 30.3332 28.0007 30.3332Z" fill="#009865"/>
<circle cx="28" cy="23" r="7" fill="white"/>
</svg>
