<svg width="52" height="24" viewBox="0 0 52 24" fill="none" xmlns="http://www.w3.org/2000/svg">
<path d="M21.8349 11.8827H25.1964C24.9515 11.1228 24.3207 10.6336 23.5094 10.6336C22.7366 10.6336 22.0795 11.1228 21.8349 11.8827ZM26.2008 10.3371C26.8707 11.1487 27.1155 12.1018 26.9349 13.2094H21.8091C22.0539 14.0206 22.7366 14.5487 23.6253 14.5487C24.3851 14.5487 24.9262 14.2397 25.2738 13.6216L26.7032 14.2654C26.0978 15.3473 24.9646 16.0426 23.5738 16.0426C22.5563 16.0426 21.7189 15.7078 21.0365 15.0511C20.3538 14.3942 20.019 13.5699 20.019 12.591C20.019 11.6123 20.3538 10.7881 21.0236 10.1313C21.693 9.47447 22.5178 9.13965 23.5094 9.13965C24.6297 9.13965 25.5184 9.53876 26.2008 10.3371Z" fill="#B4B5B8"/>
<path d="M31.3317 14.4587C31.8341 14.4587 32.2461 14.2784 32.5811 13.9178C32.9156 13.5701 33.0833 13.1194 33.0833 12.5913C33.0833 12.0632 32.9156 11.6125 32.5811 11.2648C32.2461 10.9169 31.8341 10.7366 31.3317 10.7366C30.8294 10.7366 30.4171 10.9169 30.0824 11.2648C29.7476 11.6254 29.58 12.0632 29.58 12.5913C29.58 13.1194 29.7476 13.5701 30.0824 13.9178C30.4171 14.2784 30.8294 14.4587 31.3317 14.4587ZM33.9718 10.1312C34.5772 10.7883 34.8861 11.6125 34.8861 12.5913C34.8861 13.5701 34.5772 14.3943 33.9718 15.051C33.3666 15.7081 32.6066 16.0428 31.6923 16.0428C30.8423 16.0428 30.1337 15.7339 29.58 15.1284V18.4899H27.8413V9.26851H29.58V10.054C30.1337 9.44877 30.8423 9.13965 31.6923 9.13965C32.6066 9.13965 33.3666 9.47456 33.9718 10.1312Z" fill="#B4B5B8"/>
<path d="M37.4921 13.3761L40.6603 9.26758H42.3475V15.9134H40.6086V11.8049L37.4406 15.9134H35.7534V9.26758H37.4921V13.3761Z" fill="#B4B5B8"/>
<path d="M45.4933 15.9133H43.7544V9.26758H50.117V15.9133H48.378V10.8003H45.4933V15.9133Z" fill="#B4B5B8"/>
<path d="M6.34013 3.98462L10.1341 8.62278L11.462 6.99136C11.794 6.58351 11.7845 5.99544 11.462 5.59707L10.4756 4.39247C10.2574 4.13638 9.94444 3.98462 9.62195 3.98462H6.34013ZM0.639648 3.98462L6.33065 10.9466L8.22765 8.62278L4.44313 3.98462H0.639648Z" fill="#B4B5B8"/>
<path d="M6.60376 19.8475L9.87493 19.8432C10.2055 19.8423 10.5243 19.6911 10.7309 19.4391L16.1631 12.8078C16.4907 12.3961 16.491 11.8151 16.1574 11.4052L14.8252 9.7832L6.60376 19.8475Z" fill="#B4B5B8"/>
<path d="M11.4588 6.99016C11.4481 7.00427 10.1158 8.61631 10.1158 8.61631L0.920898 19.8446L4.73864 19.8488L13.3352 9.32246C13.6842 8.92042 13.6799 8.33959 13.3454 7.9307L11.4443 5.60181C11.7646 6.00001 11.783 6.59153 11.4588 6.99016Z" fill="#B4B5B8"/>
</svg>
