<svg width="690" height="690" viewBox="0 0 690 690" fill="none" xmlns="http://www.w3.org/2000/svg">
<g clip-path="url(#clip0_343_1051)">
<path d="M628.634 267.606C618.658 229.02 593.683 197.726 558.307 179.487C530.65 165.227 492.337 166.302 464.343 167.087C454.15 167.376 440.213 167.77 436.802 166.511C433.809 164.477 426.094 152.939 420.436 144.479C404.899 121.242 383.619 89.4184 355.766 75.0579C320.389 56.8178 280.41 54.6211 243.189 68.8734C207.781 82.4328 178.359 109.143 160.345 144.082C134.61 193.994 115.937 274.215 110.39 358.679C107.922 396.257 108.464 430.109 111.959 456.574C116.119 488.074 124.139 506.476 136.475 512.837C141.949 515.659 153.17 518.505 166.814 505.851C180.071 493.555 193.932 478.741 208.633 463.028C247.536 421.445 295.954 369.689 323.595 383.941L325.34 384.841C337.63 391.177 343.204 407.376 342.378 434.363C341.561 461.095 334.64 493.635 327.941 525.143C323.51 545.972 319.329 565.644 316.964 583.216C314.504 601.514 323.223 608.936 328.645 611.736C340.921 618.064 360.639 613.744 388.928 598.53C412.582 585.81 440.64 566.371 470.066 542.316C536.095 488.334 590.432 427.175 615.418 378.714C633.433 343.774 638.127 304.315 628.634 267.606ZM510.179 251.885C509.905 251.72 482.033 235.618 459.571 215.316C449.442 206.162 438.789 192.771 439.744 190.919C440.673 189.117 460.266 188.112 464.934 187.98C490.644 187.258 525.851 186.268 548.729 198.063C616.136 232.818 626.126 312.337 596.841 369.137C573.453 414.498 519.806 474.657 456.836 526.132C428.839 549.022 401.205 568.196 379.029 580.122C353.441 593.882 340.797 595.198 338.224 593.158C336.645 591.904 337.069 590.545 337.682 586.001C339.941 569.196 344.045 549.895 348.391 529.46C355.273 497.089 362.395 463.616 363.27 434.999C364.366 399.147 355.092 376.663 334.92 366.262L333.174 365.362C313.742 355.343 290.486 360.913 262.081 382.392C239.408 399.536 216.003 424.553 193.371 448.748C178.948 464.163 165.326 478.726 152.602 490.526C149.793 493.13 148.358 495.037 146.054 494.259C144.247 493.65 137.379 489.405 132.681 453.836C129.41 429.072 128.901 395.764 131.246 360.047C136.534 279.521 154.803 200.439 178.922 153.659C208.208 96.8596 278.78 58.8784 346.189 93.6336C363.71 102.668 382.62 122.523 396.771 146.747C398.846 150.301 401.47 155.882 404.007 161.281C404.981 163.362 405.965 165.438 406.959 167.509C409.988 173.748 414.163 182.017 419.615 190.662C421.938 194.353 424.826 198.947 428.272 203.093C441.449 218.951 457.462 231.803 475.867 241.292C494.621 250.961 508.954 254.129 509.098 254.154C509.098 254.154 512.305 254.863 512.594 254.083C512.883 253.303 510.179 251.885 510.179 251.885Z" fill="#B1DECE"/>
</g>
<defs>
<clipPath id="clip0_343_1051">
<rect width="512" height="512" fill="white" transform="translate(234.633) rotate(27.2753)"/>
</clipPath>
</defs>
</svg>
