<svg width="167" height="48" viewBox="0 0 167 48" fill="none" xmlns="http://www.w3.org/2000/svg">
<g clip-path="url(#clip0_824_1461)">
<path d="M8.20557 47.9307V41.8672H10.8804C11.5574 41.8672 12.1528 41.9942 12.6666 42.2484C13.1864 42.5025 13.5884 42.8576 13.8725 43.3138C14.1627 43.77 14.3078 44.2984 14.3078 44.8989C14.3078 45.4995 14.1627 46.0279 13.8725 46.4841C13.5884 46.9404 13.1864 47.2955 12.6666 47.5495C12.1528 47.8037 11.5574 47.9307 10.8804 47.9307H8.20557ZM9.11227 47.177H10.826C11.3519 47.177 11.8052 47.0818 12.186 46.8913C12.5729 46.7006 12.8721 46.4351 13.0837 46.0944C13.2953 45.7478 13.401 45.3495 13.401 44.8989C13.401 44.4427 13.2953 44.0444 13.0837 43.7037C12.8721 43.3629 12.5729 43.0972 12.186 42.9067C11.8052 42.7161 11.3519 42.6208 10.826 42.6208H9.11227V47.177Z" fill="white"/>
<path d="M17.9726 44.4832H21.2368V45.2194H17.9726V44.4832ZM18.0542 47.177H21.7535V47.9307H17.1475V41.8672H21.6266V42.6208H18.0542V47.177Z" fill="white"/>
<path d="M24.6724 47.9307V41.8672H25.4159L29.6139 46.848H29.224V41.8672H30.1308V47.9307H29.3873L25.1891 42.95H25.579V47.9307H24.6724Z" fill="white"/>
<path d="M34.742 47.9307V42.6208H32.5659V41.8672H37.8157V42.6208H35.6397V47.9307H34.742Z" fill="white"/>
<path d="M38.9741 47.9307L41.8484 41.8672H42.746L45.6294 47.9307H44.6772L42.1113 42.3523H42.4739L39.908 47.9307H38.9741ZM40.1982 46.4149L40.4429 45.7219H44.0155L44.2784 46.4149H40.1982Z" fill="white"/>
<path d="M48.0269 47.9307V41.8672H48.9335V47.177H52.37V47.9307H48.0269Z" fill="white"/>
<path d="M60.0071 47.9307V42.6208H57.8311V41.8672H63.0808V42.6208H60.9048V47.9307H60.0071Z" fill="white"/>
<path d="M65.5195 47.9307V41.8672H67.9949C68.551 41.8672 69.0256 41.9509 69.4185 42.1183C69.8115 42.286 70.1136 42.5284 70.3252 42.8461C70.5367 43.1636 70.6426 43.5419 70.6426 43.9807C70.6426 44.4197 70.5367 44.7978 70.3252 45.1155C70.1136 45.4273 69.8115 45.6669 69.4185 45.8346C69.0256 46.002 68.551 46.0857 67.9949 46.0857H66.0184L66.4264 45.6872V47.9307H65.5195ZM69.763 47.9307L68.1491 45.7306H69.1194L70.7514 47.9307H69.763ZM66.4264 45.7739L66.0184 45.3495H67.9677C68.5481 45.3495 68.9862 45.231 69.2825 44.9942C69.5848 44.7517 69.7358 44.4138 69.7358 43.9807C69.7358 43.5478 69.5848 43.2127 69.2825 42.9759C68.9862 42.7391 68.5481 42.6208 67.9677 42.6208H66.0184L66.4264 42.1877V45.7739Z" fill="white"/>
<path d="M72.5967 47.9307L75.4709 41.8672H76.3686L79.252 47.9307H78.2998L75.7339 42.3523H76.0965L73.5306 47.9307H72.5967ZM73.8208 46.4149L74.0654 45.7219H77.638L77.901 46.4149H73.8208Z" fill="white"/>
<path d="M81.6499 47.9307V41.8672H82.5565V47.9307H81.6499Z" fill="white"/>
<path d="M85.9072 47.9307V41.8672H86.6507L90.8489 46.848H90.459V41.8672H91.3657V47.9307H90.6222L86.4242 42.95H86.814V47.9307H85.9072Z" fill="white"/>
<path d="M94.7163 47.9307V41.8672H95.6231V47.9307H94.7163Z" fill="white"/>
<path d="M98.9741 47.9307V41.8672H99.7176L103.916 46.848H103.526V41.8672H104.433V47.9307H103.689L99.4909 42.95H99.8807V47.9307H98.9741Z" fill="white"/>
<path d="M110.648 48.0001C110.158 48.0001 109.708 47.925 109.297 47.7748C108.886 47.6189 108.529 47.4023 108.227 47.1251C107.925 46.8422 107.689 46.513 107.52 46.1377C107.351 45.7624 107.266 45.3495 107.266 44.899C107.266 44.4486 107.351 44.0357 107.52 43.6602C107.689 43.2849 107.925 42.9587 108.227 42.6815C108.535 42.3986 108.895 42.182 109.306 42.0318C109.717 41.8759 110.171 41.7979 110.666 41.7979C111.168 41.7979 111.627 41.8759 112.044 42.0318C112.462 42.1877 112.815 42.4217 113.105 42.7335L112.543 43.2705C112.283 43.0279 111.999 42.8518 111.691 42.7422C111.389 42.6267 111.059 42.5689 110.702 42.5689C110.34 42.5689 110.001 42.6267 109.687 42.7422C109.379 42.8576 109.11 43.0194 108.88 43.2273C108.656 43.4351 108.481 43.6835 108.354 43.9722C108.233 44.2551 108.173 44.5641 108.173 44.899C108.173 45.2282 108.233 45.5371 108.354 45.8259C108.481 46.1088 108.656 46.3571 108.88 46.5708C109.11 46.7787 109.379 46.9405 109.687 47.0559C109.995 47.1714 110.331 47.229 110.694 47.229C111.032 47.229 111.355 47.1801 111.664 47.0818C111.978 46.9779 112.268 46.8076 112.534 46.5708L113.051 47.229C112.737 47.4832 112.368 47.6767 111.945 47.8096C111.528 47.9366 111.095 48.0001 110.648 48.0001ZM112.181 47.1166V44.8644H113.051V47.229L112.181 47.1166Z" fill="white"/>
<path d="M124.675 41.8672H125.582V47.9307H124.675V41.8672ZM121.03 47.9307H120.124V41.8672H121.03V47.9307ZM124.757 45.2281H120.94V44.4745H124.757V45.2281Z" fill="white"/>
<path d="M131.798 48.0001C131.314 48.0001 130.864 47.922 130.447 47.7661C130.036 47.6102 129.679 47.3936 129.377 47.1166C129.074 46.8335 128.839 46.5043 128.669 46.129C128.5 45.7537 128.416 45.3436 128.416 44.899C128.416 44.4543 128.5 44.0444 128.669 43.6689C128.839 43.2936 129.074 42.9674 129.377 42.6902C129.679 42.4071 130.036 42.1877 130.447 42.0318C130.858 41.8759 131.308 41.7979 131.798 41.7979C132.281 41.7979 132.725 41.8759 133.13 42.0318C133.542 42.182 133.898 42.3986 134.2 42.6815C134.509 42.9587 134.744 43.2849 134.908 43.6602C135.077 44.0357 135.162 44.4486 135.162 44.899C135.162 45.3495 135.077 45.7624 134.908 46.1377C134.744 46.513 134.509 46.8422 134.2 47.1251C133.898 47.4023 133.542 47.6189 133.13 47.7748C132.725 47.925 132.281 48.0001 131.798 48.0001ZM131.798 47.229C132.148 47.229 132.472 47.1714 132.768 47.0559C133.07 46.9405 133.33 46.7787 133.548 46.5708C133.771 46.3571 133.943 46.1088 134.064 45.8259C134.191 45.5428 134.255 45.234 134.255 44.899C134.255 44.5641 134.191 44.2551 134.064 43.9722C133.943 43.6891 133.771 43.4438 133.548 43.2358C133.33 43.0222 133.07 42.8576 132.768 42.7422C132.472 42.6267 132.148 42.5689 131.798 42.5689C131.441 42.5689 131.111 42.6267 130.809 42.7422C130.513 42.8576 130.253 43.0222 130.029 43.2358C129.806 43.4438 129.63 43.6891 129.504 43.9722C129.383 44.2551 129.322 44.5641 129.322 44.899C129.322 45.234 129.383 45.5428 129.504 45.8259C129.63 46.1088 129.806 46.3571 130.029 46.5708C130.253 46.7787 130.513 46.9405 130.809 47.0559C131.111 47.1714 131.441 47.229 131.798 47.229Z" fill="white"/>
<path d="M140.628 48C139.793 48 139.138 47.7719 138.66 47.3158C138.183 46.8596 137.944 46.1925 137.944 45.3147V41.8672H138.85V45.2801C138.85 45.9557 139.005 46.4495 139.313 46.7613C139.627 47.0731 140.069 47.229 140.637 47.229C141.211 47.229 141.652 47.0731 141.961 46.7613C142.275 46.4495 142.432 45.9557 142.432 45.2801V41.8672H143.312V45.3147C143.312 46.1925 143.073 46.8596 142.595 47.3158C142.124 47.7719 141.468 48 140.628 48Z" fill="white"/>
<path d="M148.471 48.0001C147.987 48.0001 147.525 47.9307 147.084 47.7922C146.642 47.6478 146.295 47.463 146.041 47.2377L146.376 46.5621C146.618 46.7643 146.926 46.9318 147.301 47.0646C147.676 47.1973 148.066 47.2638 148.471 47.2638C148.84 47.2638 149.139 47.2234 149.369 47.1425C149.598 47.0616 149.768 46.952 149.876 46.8133C149.985 46.6689 150.039 46.5073 150.039 46.3282C150.039 46.1203 149.967 45.9529 149.822 45.8259C149.683 45.6989 149.499 45.5978 149.269 45.5228C149.045 45.4419 148.797 45.3725 148.525 45.3147C148.253 45.2571 147.978 45.1905 147.7 45.1155C147.428 45.0346 147.177 44.9337 146.948 44.8124C146.724 44.6911 146.543 44.5295 146.404 44.3273C146.265 44.1194 146.195 43.8537 146.195 43.5304C146.195 43.2186 146.28 42.9327 146.449 42.6728C146.624 42.4071 146.89 42.1964 147.247 42.0405C147.61 41.8787 148.069 41.7979 148.625 41.7979C148.994 41.7979 149.36 41.8442 149.722 41.9366C150.085 42.029 150.399 42.1618 150.665 42.3349L150.366 43.0279C150.094 42.8548 149.807 42.7306 149.505 42.6554C149.202 42.5747 148.909 42.5343 148.625 42.5343C148.268 42.5343 147.975 42.5776 147.746 42.6641C147.516 42.7509 147.347 42.8663 147.238 43.0107C147.135 43.1551 147.084 43.3167 147.084 43.4958C147.084 43.7093 147.153 43.8798 147.292 44.0068C147.437 44.1338 147.622 44.2349 147.845 44.3099C148.075 44.3851 148.326 44.4543 148.598 44.5178C148.87 44.5756 149.142 44.6419 149.414 44.7172C149.692 44.7922 149.943 44.8903 150.167 45.0116C150.396 45.1329 150.581 45.2945 150.72 45.4967C150.859 45.6989 150.928 45.9587 150.928 46.2762C150.928 46.5824 150.84 46.8683 150.665 47.1338C150.49 47.3936 150.218 47.6045 149.849 47.7661C149.487 47.922 149.027 48.0001 148.471 48.0001Z" fill="white"/>
<path d="M154.529 44.4832H157.793V45.2194H154.529V44.4832ZM154.61 47.177H158.31V47.9307H153.704V41.8672H158.183V42.6208H154.61V47.177Z" fill="white"/>
<path d="M43.3616 35.2261C43.595 34.8365 43.8178 34.4362 44.03 34.025C45.8678 30.5601 46.7865 26.5177 46.7865 21.898C46.7865 17.4167 45.9402 13.5361 44.2476 10.256C42.5552 6.97593 40.1614 4.45814 37.0666 2.70261C33.9717 0.900867 30.2963 0 26.0409 0H0V2.49471L8.1967 4.01924L7.58612 35.2261H15.0152V4.50433H25.0253C27.0081 4.50433 28.8456 4.85082 30.5382 5.54379C32.2791 6.23677 33.8023 7.29932 35.108 8.73146C36.4621 10.1636 37.5018 12.0346 38.227 14.3446C38.9525 16.6083 39.3151 19.357 39.3151 22.591C39.3151 27.1183 38.4446 30.8835 36.7038 33.8865C36.4301 34.3514 36.136 34.7979 35.8217 35.2261H43.3616Z" fill="white"/>
<path d="M84.2214 35.2261H76.7928L77.403 4.50433H64.6365L61.8074 17.5322H59.1235V0H102.356V17.5322H99.6718L96.843 4.50433H84.2214V35.2261Z" fill="white"/>
<path d="M129.114 35.2261H121.685L122.296 4.01924L114.099 2.49471V0H136.368V2.21752C135.304 2.58711 134.144 2.93359 132.886 3.25697C131.677 3.53416 130.42 3.76517 129.114 3.94995V19.9576H152.232L152.544 4.01924L144.637 2.49471V0H166.834V2.21752C165.721 2.58711 164.537 2.93359 163.279 3.25697C162.022 3.53416 160.716 3.76517 159.362 3.94995V35.2261H151.933L152.145 24.3927H129.114V35.2261Z" fill="white"/>
</g>
<defs>
<clipPath id="clip0_824_1461">
<rect width="167" height="48" fill="white"/>
</clipPath>
</defs>
</svg>
