<svg width="167" height="48" viewBox="0 0 167 48" fill="none" xmlns="http://www.w3.org/2000/svg">
<g clip-path="url(#clip0_534_3088)">
<path d="M8.20581 47.9307V41.8672H10.8806C11.5576 41.8672 12.153 41.9941 12.6669 42.2483C13.1867 42.5025 13.5887 42.8576 13.8728 43.3138C14.1629 43.77 14.308 44.2983 14.308 44.8989C14.308 45.4995 14.1629 46.0279 13.8728 46.484C13.5887 46.9404 13.1867 47.2955 12.6669 47.5495C12.153 47.8037 11.5576 47.9307 10.8806 47.9307H8.20581ZM9.11252 47.177H10.8262C11.3521 47.177 11.8055 47.0818 12.1863 46.8913C12.5732 46.7006 12.8724 46.4351 13.0839 46.0944C13.2955 45.7478 13.4013 45.3494 13.4013 44.8989C13.4013 44.4427 13.2955 44.0444 13.0839 43.7036C12.8724 43.3629 12.5732 43.0972 12.1863 42.9067C11.8055 42.716 11.3521 42.6208 10.8262 42.6208H9.11252V47.177Z" fill="#009865"/>
<path d="M17.9726 44.4832H21.2368V45.2194H17.9726V44.4832ZM18.0542 47.177H21.7535V47.9307H17.1475V41.8672H21.6266V42.6208H18.0542V47.177Z" fill="#009865"/>
<path d="M24.6726 47.9307V41.8672H25.4161L29.6141 46.848H29.2242V41.8672H30.1311V47.9307H29.3875L25.1894 42.95H25.5792V47.9307H24.6726Z" fill="#009865"/>
<path d="M34.7417 47.9307V42.6208H32.5657V41.8672H37.8155V42.6208H35.6394V47.9307H34.7417Z" fill="#009865"/>
<path d="M38.9741 47.9307L41.8484 41.8672H42.746L45.6294 47.9307H44.6772L42.1113 42.3523H42.4739L39.908 47.9307H38.9741ZM40.1982 46.4149L40.4429 45.7219H44.0155L44.2784 46.4149H40.1982Z" fill="#009865"/>
<path d="M48.0269 47.9307V41.8672H48.9335V47.177H52.37V47.9307H48.0269Z" fill="#009865"/>
<path d="M60.0074 47.9307V42.6208H57.8313V41.8672H63.0811V42.6208H60.905V47.9307H60.0074Z" fill="#009865"/>
<path d="M65.5193 47.9307V41.8672H67.9947C68.5508 41.8672 69.0253 41.9509 69.4183 42.1183C69.8113 42.2859 70.1133 42.5284 70.3249 42.8461C70.5365 43.1635 70.6424 43.5419 70.6424 43.9807C70.6424 44.4197 70.5365 44.7978 70.3249 45.1155C70.1133 45.4273 69.8113 45.6669 69.4183 45.8345C69.0253 46.002 68.5508 46.0857 67.9947 46.0857H66.0181L66.4261 45.6871V47.9307H65.5193ZM69.7628 47.9307L68.1489 45.7306H69.1191L70.7512 47.9307H69.7628ZM66.4261 45.7739L66.0181 45.3494H67.9675C68.5479 45.3494 68.986 45.2309 69.2822 44.9941C69.5845 44.7517 69.7356 44.4138 69.7356 43.9807C69.7356 43.5477 69.5845 43.2127 69.2822 42.9759C68.986 42.7391 68.5479 42.6208 67.9675 42.6208H66.0181L66.4261 42.1877V45.7739Z" fill="#009865"/>
<path d="M72.5969 47.9307L75.4712 41.8672H76.3688L79.2522 47.9307H78.3L75.7341 42.3523H76.0967L73.5308 47.9307H72.5969ZM73.821 46.4149L74.0657 45.7219H77.6383L77.9012 46.4149H73.821Z" fill="#009865"/>
<path d="M81.6497 47.9307V41.8672H82.5563V47.9307H81.6497Z" fill="#009865"/>
<path d="M85.9072 47.9307V41.8672H86.6507L90.8489 46.848H90.459V41.8672H91.3657V47.9307H90.6222L86.4242 42.95H86.814V47.9307H85.9072Z" fill="#009865"/>
<path d="M94.7163 47.9307V41.8672H95.6231V47.9307H94.7163Z" fill="#009865"/>
<path d="M98.9739 47.9307V41.8672H99.7174L103.916 46.848H103.525V41.8672H104.432V47.9307H103.689L99.4906 42.95H99.8805V47.9307H98.9739Z" fill="#009865"/>
<path d="M110.648 48C110.158 48 109.708 47.925 109.297 47.7747C108.886 47.6188 108.529 47.4023 108.227 47.125C107.925 46.8421 107.689 46.5129 107.52 46.1376C107.351 45.7623 107.266 45.3494 107.266 44.8989C107.266 44.4486 107.351 44.0357 107.52 43.6602C107.689 43.2848 107.925 42.9587 108.227 42.6814C108.535 42.3985 108.895 42.182 109.306 42.0317C109.717 41.8758 110.171 41.7978 110.666 41.7978C111.168 41.7978 111.627 41.8758 112.044 42.0317C112.462 42.1876 112.815 42.4216 113.105 42.7334L112.543 43.2705C112.283 43.0278 111.999 42.8517 111.691 42.7421C111.389 42.6266 111.059 42.5688 110.702 42.5688C110.34 42.5688 110.001 42.6266 109.687 42.7421C109.379 42.8576 109.11 43.0193 108.88 43.2272C108.656 43.4351 108.481 43.6834 108.354 43.9722C108.233 44.2551 108.173 44.564 108.173 44.8989C108.173 45.2281 108.233 45.5371 108.354 45.8258C108.481 46.1087 108.656 46.357 108.88 46.5708C109.11 46.7786 109.379 46.9404 109.687 47.0559C109.995 47.1713 110.331 47.229 110.694 47.229C111.032 47.229 111.355 47.18 111.664 47.0818C111.978 46.9778 112.268 46.8076 112.534 46.5708L113.051 47.229C112.737 47.4831 112.368 47.6767 111.945 47.8095C111.528 47.9365 111.095 48 110.648 48ZM112.181 47.1165V44.8643H113.051V47.229L112.181 47.1165Z" fill="#009865"/>
<path d="M124.675 41.8672H125.582V47.9307H124.675V41.8672ZM121.03 47.9307H120.124V41.8672H121.03V47.9307ZM124.757 45.2281H120.94V44.4745H124.757V45.2281Z" fill="#009865"/>
<path d="M131.798 48C131.314 48 130.864 47.9219 130.447 47.766C130.036 47.6101 129.679 47.3936 129.377 47.1165C129.074 46.8334 128.839 46.5042 128.669 46.1289C128.5 45.7536 128.416 45.3436 128.416 44.8989C128.416 44.4542 128.5 44.0443 128.669 43.6688C128.839 43.2935 129.074 42.9674 129.377 42.6901C129.679 42.4071 130.036 42.1876 130.447 42.0317C130.858 41.8758 131.308 41.7978 131.798 41.7978C132.281 41.7978 132.725 41.8758 133.13 42.0317C133.542 42.182 133.898 42.3985 134.2 42.6814C134.509 42.9587 134.744 43.2848 134.908 43.6602C135.077 44.0357 135.162 44.4486 135.162 44.8989C135.162 45.3494 135.077 45.7623 134.908 46.1376C134.744 46.5129 134.509 46.8421 134.2 47.125C133.898 47.4023 133.542 47.6188 133.13 47.7747C132.725 47.925 132.281 48 131.798 48ZM131.798 47.229C132.148 47.229 132.472 47.1713 132.768 47.0559C133.07 46.9404 133.33 46.7786 133.548 46.5708C133.771 46.357 133.943 46.1087 134.064 45.8258C134.191 45.5427 134.255 45.2339 134.255 44.8989C134.255 44.564 134.191 44.2551 134.064 43.9722C133.943 43.6891 133.771 43.4438 133.548 43.2357C133.33 43.0222 133.07 42.8576 132.768 42.7421C132.472 42.6266 132.148 42.5688 131.798 42.5688C131.441 42.5688 131.111 42.6266 130.809 42.7421C130.513 42.8576 130.253 43.0222 130.029 43.2357C129.806 43.4438 129.63 43.6891 129.504 43.9722C129.383 44.2551 129.322 44.564 129.322 44.8989C129.322 45.2339 129.383 45.5427 129.504 45.8258C129.63 46.1087 129.806 46.357 130.029 46.5708C130.253 46.7786 130.513 46.9404 130.809 47.0559C131.111 47.1713 131.441 47.229 131.798 47.229Z" fill="#009865"/>
<path d="M140.628 48C139.793 48 139.138 47.7719 138.66 47.3157C138.183 46.8595 137.944 46.1924 137.944 45.3147V41.8672H138.85V45.2801C138.85 45.9557 139.005 46.4495 139.313 46.7613C139.627 47.0731 140.069 47.229 140.637 47.229C141.211 47.229 141.652 47.0731 141.961 46.7613C142.275 46.4495 142.432 45.9557 142.432 45.2801V41.8672H143.312V45.3147C143.312 46.1924 143.073 46.8595 142.595 47.3157C142.124 47.7719 141.468 48 140.628 48Z" fill="#009865"/>
<path d="M148.471 48C147.987 48 147.525 47.9306 147.084 47.7921C146.642 47.6477 146.295 47.4629 146.041 47.2377L146.376 46.5621C146.618 46.7643 146.926 46.9317 147.301 47.0646C147.676 47.1972 148.066 47.2637 148.471 47.2637C148.84 47.2637 149.139 47.2233 149.369 47.1424C149.598 47.0615 149.768 46.9519 149.876 46.8132C149.985 46.6688 150.039 46.5073 150.039 46.3281C150.039 46.1202 149.967 45.9528 149.822 45.8258C149.683 45.6988 149.499 45.5977 149.269 45.5227C149.045 45.4418 148.797 45.3725 148.525 45.3146C148.253 45.257 147.978 45.1905 147.7 45.1155C147.428 45.0346 147.177 44.9337 146.948 44.8123C146.724 44.691 146.543 44.5294 146.404 44.3272C146.265 44.1194 146.195 43.8537 146.195 43.5303C146.195 43.2185 146.28 42.9326 146.449 42.6728C146.624 42.4071 146.89 42.1963 147.247 42.0404C147.61 41.8787 148.069 41.7978 148.625 41.7978C148.994 41.7978 149.36 41.8441 149.722 41.9365C150.085 42.0289 150.399 42.1618 150.665 42.3349L150.366 43.0278C150.094 42.8547 149.807 42.7306 149.505 42.6554C149.202 42.5747 148.909 42.5342 148.625 42.5342C148.268 42.5342 147.975 42.5775 147.746 42.6641C147.516 42.7508 147.347 42.8663 147.238 43.0106C147.135 43.155 147.084 43.3166 147.084 43.4957C147.084 43.7093 147.153 43.8797 147.292 44.0067C147.437 44.1337 147.622 44.2348 147.845 44.3099C148.075 44.3851 148.326 44.4542 148.598 44.5177C148.87 44.5756 149.142 44.6419 149.414 44.7171C149.692 44.7921 149.943 44.8902 150.167 45.0115C150.396 45.1328 150.581 45.2944 150.72 45.4966C150.859 45.6988 150.928 45.9587 150.928 46.2762C150.928 46.5823 150.84 46.8682 150.665 47.1337C150.49 47.3936 150.218 47.6045 149.849 47.766C149.487 47.9219 149.027 48 148.471 48Z" fill="#009865"/>
<path d="M154.528 44.4832H157.793V45.2194H154.528V44.4832ZM154.61 47.177H158.31V47.9307H153.703V41.8672H158.183V42.6208H154.61V47.177Z" fill="#009865"/>
<path d="M43.3616 35.2261C43.595 34.8365 43.8178 34.4362 44.03 34.025C45.8678 30.5601 46.7865 26.5177 46.7865 21.898C46.7865 17.4167 45.9402 13.5361 44.2476 10.256C42.5552 6.97593 40.1614 4.45814 37.0666 2.70261C33.9717 0.900867 30.2963 0 26.0409 0H0V2.49471L8.1967 4.01924L7.58612 35.2261H15.0152V4.50433H25.0253C27.0081 4.50433 28.8456 4.85082 30.5382 5.54379C32.2791 6.23677 33.8023 7.29932 35.108 8.73146C36.4621 10.1636 37.5018 12.0346 38.227 14.3446C38.9525 16.6083 39.3151 19.357 39.3151 22.591C39.3151 27.1183 38.4446 30.8835 36.7038 33.8865C36.4301 34.3514 36.136 34.7979 35.8217 35.2261H43.3616Z" fill="#009865"/>
<path d="M84.2214 35.2261H76.7928L77.403 4.50433H64.6365L61.8074 17.5322H59.1235V0H102.356V17.5322H99.6718L96.843 4.50433H84.2214V35.2261Z" fill="#009865"/>
<path d="M129.115 35.2261H121.685L122.296 4.01924L114.099 2.49471V0H136.368V2.21752C135.304 2.58711 134.144 2.93359 132.886 3.25697C131.678 3.53416 130.42 3.76517 129.115 3.94995V19.9576H152.232L152.544 4.01924L144.638 2.49471V0H166.834V2.21752C165.722 2.58711 164.537 2.93359 163.28 3.25697C162.022 3.53416 160.716 3.76517 159.363 3.94995V35.2261H151.933L152.145 24.3927H129.115V35.2261Z" fill="#009865"/>
</g>
<defs>
<clipPath id="clip0_534_3088">
<rect width="167" height="48" fill="white"/>
</clipPath>
</defs>
</svg>
