<svg width="32" height="24" viewBox="0 0 32 24" fill="none" xmlns="http://www.w3.org/2000/svg">
<path d="M6.60087 23.9473V22.3545C6.60087 21.7453 6.22973 21.3463 5.59262 21.3463C5.27406 21.3463 4.92767 21.4514 4.68952 21.7978C4.50396 21.5071 4.23798 21.3463 3.83901 21.3463C3.57303 21.3463 3.30705 21.4267 3.09674 21.7174V21.3989H2.54004V23.9473H3.09674V22.5401C3.09674 22.0886 3.33488 21.8752 3.70602 21.8752C4.07715 21.8752 4.26272 22.1133 4.26272 22.5401V23.9473H4.81942V22.5401C4.81942 22.0886 5.0854 21.8752 5.4287 21.8752C5.79983 21.8752 5.9854 22.1133 5.9854 22.5401V23.9473H6.60087ZM14.8586 21.3989H13.9555V20.6288H13.3988V21.3989H12.8947V21.903H13.3988V23.0721C13.3988 23.6566 13.637 23.9999 14.2741 23.9999C14.5122 23.9999 14.7782 23.9195 14.9638 23.8143L14.8029 23.3349C14.6421 23.4401 14.4565 23.4679 14.3236 23.4679C14.0576 23.4679 13.9524 23.3071 13.9524 23.0442V21.903H14.8555V21.3989H14.8586ZM19.5844 21.3432C19.2658 21.3432 19.0524 21.504 18.9194 21.7143V21.3958H18.3627V23.9442H18.9194V22.5092C18.9194 22.0855 19.105 21.8442 19.4514 21.8442C19.5565 21.8442 19.6895 21.8721 19.7978 21.8968L19.9586 21.3648C19.8473 21.3432 19.6895 21.3432 19.5844 21.3432ZM12.4431 21.6092C12.1772 21.4236 11.806 21.3432 11.4071 21.3432C10.7699 21.3432 10.3462 21.6618 10.3462 22.1659C10.3462 22.5896 10.6648 22.8308 11.2215 22.9081L11.4875 22.936C11.7782 22.9886 11.939 23.069 11.939 23.202C11.939 23.3875 11.7256 23.5205 11.3545 23.5205C10.9833 23.5205 10.6895 23.3875 10.504 23.2545L10.238 23.6782C10.5287 23.8916 10.9277 23.9968 11.3266 23.9968C12.0689 23.9968 12.4957 23.6504 12.4957 23.1741C12.4957 22.7226 12.1493 22.4844 11.6205 22.404L11.3545 22.3762C11.1163 22.3483 10.9308 22.2958 10.9308 22.138C10.9308 21.9525 11.1163 21.8473 11.4101 21.8473C11.7287 21.8473 12.0473 21.9803 12.2081 22.0607L12.4431 21.6092ZM27.2545 21.3432C26.9359 21.3432 26.7225 21.504 26.5895 21.7143V21.3958H26.0328V23.9442H26.5895V22.5092C26.5895 22.0855 26.7751 21.8442 27.1215 21.8442C27.2267 21.8442 27.3596 21.8721 27.4679 21.8968L27.6287 21.371C27.5205 21.3432 27.3627 21.3432 27.2545 21.3432ZM20.1411 22.6731C20.1411 23.4432 20.673 23.9999 21.4957 23.9999C21.8669 23.9999 22.1328 23.9195 22.3988 23.7092L22.1328 23.2576C21.9194 23.4185 21.7091 23.4958 21.4679 23.4958C21.0163 23.4958 20.6978 23.1772 20.6978 22.6731C20.6978 22.1937 21.0163 21.8752 21.4679 21.8504C21.706 21.8504 21.9194 21.9308 22.1328 22.0886L22.3988 21.637C22.1328 21.4236 21.8669 21.3463 21.4957 21.3463C20.673 21.3432 20.1411 21.903 20.1411 22.6731ZM25.2906 22.6731V21.3989H24.7339V21.7174C24.5483 21.4793 24.2823 21.3463 23.9359 21.3463C23.2184 21.3463 22.6617 21.903 22.6617 22.6731C22.6617 23.4432 23.2184 23.9999 23.9359 23.9999C24.3071 23.9999 24.573 23.8669 24.7339 23.6288V23.9473H25.2906V22.6731ZM23.2462 22.6731C23.2462 22.2215 23.537 21.8504 24.0163 21.8504C24.4679 21.8504 24.7864 22.1968 24.7864 22.6731C24.7864 23.1246 24.4679 23.4958 24.0163 23.4958C23.5401 23.4679 23.2462 23.1215 23.2462 22.6731ZM16.5844 21.3432C15.8421 21.3432 15.3102 21.8752 15.3102 22.67C15.3102 23.4679 15.8421 23.9968 16.6122 23.9968C16.9833 23.9968 17.3545 23.8916 17.6483 23.6504L17.3823 23.2514C17.1689 23.4123 16.9029 23.5174 16.64 23.5174C16.2937 23.5174 15.9504 23.3566 15.8699 22.9081H17.7535C17.7535 22.8277 17.7535 22.7752 17.7535 22.6947C17.7782 21.8752 17.2988 21.3432 16.5844 21.3432ZM16.5844 21.8226C16.9308 21.8226 17.1689 22.036 17.2215 22.4319H15.8947C15.9473 22.0886 16.1854 21.8226 16.5844 21.8226ZM30.4153 22.6731V20.3906H29.8586V21.7174C29.673 21.4793 29.4071 21.3463 29.0607 21.3463C28.3431 21.3463 27.7864 21.903 27.7864 22.6731C27.7864 23.4432 28.3431 23.9999 29.0607 23.9999C29.4318 23.9999 29.6978 23.8669 29.8586 23.6288V23.9473H30.4153V22.6731ZM28.371 22.6731C28.371 22.2215 28.6617 21.8504 29.1411 21.8504C29.5926 21.8504 29.9112 22.1968 29.9112 22.6731C29.9112 23.1246 29.5926 23.4958 29.1411 23.4958C28.6617 23.4679 28.371 23.1215 28.371 22.6731ZM9.73386 22.6731V21.3989H9.17716V21.7174C8.99159 21.4793 8.72561 21.3463 8.37922 21.3463C7.66169 21.3463 7.10499 21.903 7.10499 22.6731C7.10499 23.4432 7.66169 23.9999 8.37922 23.9999C8.75035 23.9999 9.01633 23.8669 9.17716 23.6288V23.9473H9.73386V22.6731ZM7.66478 22.6731C7.66478 22.2215 7.95551 21.8504 8.43489 21.8504C8.88643 21.8504 9.20499 22.1968 9.20499 22.6731C9.20499 23.1246 8.88643 23.4958 8.43489 23.4958C7.95551 23.4679 7.66478 23.1215 7.66478 22.6731Z" fill="#A0A1A3"/>
<path opacity="0.9" d="M10.5 17C15.1944 17 19 13.1944 19 8.5C19 3.80558 15.1944 0 10.5 0C5.80558 0 2 3.80558 2 8.5C2 13.1944 5.80558 17 10.5 17Z" fill="#B4B5B8"/>
<path opacity="0.6" d="M21.5 17C26.1944 17 30 13.1944 30 8.5C30 3.80558 26.1944 0 21.5 0C16.8056 0 13 3.80558 13 8.5C13 13.1944 16.8056 17 21.5 17Z" fill="#B4B5B8"/>
</svg>
