<svg width="24" height="24" viewBox="0 0 24 24" fill="none" xmlns="http://www.w3.org/2000/svg">
<path d="M11.9993 15C8.68564 15 5.99935 12.3137 5.99935 9C5.99935 5.68629 8.68564 3 11.9993 3C15.313 3 17.9993 5.68629 17.9993 9C17.9993 12.3137 15.313 15 11.9993 15ZM11.9993 15L15.6412 20.8281C16.0506 21.4834 17.0641 21.151 17.0059 20.3805L16.8585 18.4296C16.8136 17.835 17.4547 17.4344 17.9694 17.7354L19.6583 18.7231C20.3252 19.1132 21.0683 18.348 20.6588 17.6928L17.1569 12.0677M11.9993 15L8.35753 20.8281C7.94808 21.4834 6.93464 21.151 6.99283 20.3805L7.14017 18.4296C7.18507 17.835 6.54403 17.4344 6.02932 17.7354L4.34042 18.7231C3.67344 19.1132 2.93041 18.348 3.33986 17.6928L6.8418 12.0677M13.9993 9C13.9993 10.1046 13.1039 11 11.9993 11C10.8948 11 9.99935 10.1046 9.99935 9C9.99935 7.89543 10.8948 7 11.9993 7C13.1039 7 13.9993 7.89543 13.9993 9Z" stroke="currentColor" stroke-width="1.25" stroke-linecap="round"/>
</svg>
