<svg width="24" height="24" viewBox="0 0 24 24" fill="none" xmlns="http://www.w3.org/2000/svg">
<path d="M21.5 7.5C21.5 9.15685 17.2467 10.5 12 10.5M21.5 7.5C21.5 5.84315 17.2467 4.5 12 4.5C6.75329 4.5 2.5 5.84315 2.5 7.5M21.5 7.5V10.5M12 10.5C6.75329 10.5 2.5 9.15685 2.5 7.5M12 10.5V13.5M2.5 7.5V10.5M21.5 10.5C21.5 12.1569 17.2467 13.5 12 13.5M21.5 10.5V13.5M12 13.5C6.75329 13.5 2.5 12.1569 2.5 10.5M2.5 10.5V13.5M4 9.5V12M7.5 10.5V13M16.5 10.5V13M20 9.5V12M5 12.5V15M8.5 13.5V16M13 13.5V16.5M17.5 13.5V16M21 12V14.5M4 15.5V18M7.5 16.5V19M12 16.5V19.5M12 16.5C17.2467 16.5 21.5 15.1569 21.5 13.5M12 16.5C6.75329 16.5 2.5 15.1569 2.5 13.5M12 19.5C17.2467 19.5 21.5 18.1569 21.5 16.5V13.5M12 19.5C6.75329 19.5 2.5 18.1569 2.5 16.5V13.5M16.5 16.5V19M20 15.5V18" stroke="currentColor" stroke-width="1.25" stroke-linecap="round"/>
</svg>
