<svg width="24" height="24" viewBox="0 0 24 24" fill="none" xmlns="http://www.w3.org/2000/svg">
<path d="M3 7.91667H21M3 10.25H21M5.5 13.75H12.5M5.5 16.0833H9.5M5 5H19C20.1046 5 21 6.04467 21 7.33333V16.6667C21 17.9554 20.1046 19 19 19H5C3.89543 19 3 17.9554 3 16.6667V7.33333C3 6.04467 3.89543 5 5 5ZM18.5 15.5C18.5 15.8221 18.2761 16.0833 18 16.0833C17.7239 16.0833 17.5 15.8221 17.5 15.5C17.5 15.1779 17.7239 14.9167 18 14.9167C18.2761 14.9167 18.5 15.1779 18.5 15.5Z" stroke="currentColor" stroke-width="1.5" stroke-linecap="round"/>
</svg>
