<svg width="32" height="32" viewBox="0 0 32 32" fill="none" xmlns="http://www.w3.org/2000/svg">
<path d="M13.3333 12.6667C13.3333 13.0349 13.0349 13.3333 12.6667 13.3333C12.2985 13.3333 12 13.0349 12 12.6667C12 12.2985 12.2985 12 12.6667 12C13.0349 12 13.3333 12.2985 13.3333 12.6667Z" stroke="#009865" stroke-width="1.75" stroke-linecap="round"/>
<path d="M19.9993 19.3332C19.9993 19.7013 19.7008 19.9998 19.3327 19.9998C18.9645 19.9998 18.666 19.7013 18.666 19.3332C18.666 18.965 18.9645 18.6665 19.3327 18.6665C19.7008 18.6665 19.9993 18.965 19.9993 19.3332Z" stroke="#009865" stroke-width="1.75" stroke-linecap="round"/>
<path d="M17.4112 5.72576C17.688 5.5476 17.8264 5.45852 17.9387 5.40048C19.3573 4.66701 21.0981 5.33646 21.6597 6.83146C21.7041 6.94974 21.7472 7.10861 21.8333 7.42633C21.8731 7.57303 21.8929 7.64639 21.9152 7.71387C22.1843 8.53141 22.8313 9.16883 23.6528 9.42553C23.7207 9.44672 23.7943 9.46549 23.9416 9.50304L24.1416 9.554C24.8336 9.73041 25.1796 9.81861 25.4323 9.94393C26.5809 10.5135 27.1616 11.8199 26.8148 13.0542C26.7385 13.3258 26.5721 13.6418 26.2395 14.2736L26.1433 14.4563C26.0725 14.5907 26.0371 14.658 26.0073 14.7226C25.6475 15.5043 25.6871 16.4118 26.1137 17.1594C26.1489 17.221 26.19 17.285 26.2723 17.4127C26.4504 17.6895 26.5395 17.8279 26.5976 17.9402C27.3311 19.3588 26.6616 21.0996 25.1665 21.6612C25.0483 21.7056 24.8895 21.7487 24.5717 21.8348C24.4251 21.8746 24.3516 21.8944 24.2841 21.9167C23.4667 22.1858 22.8292 22.8328 22.5725 23.6543C22.5513 23.7222 22.5325 23.7958 22.4951 23.9431L22.444 24.143C22.2676 24.8351 22.1795 25.1811 22.0541 25.4338C21.4845 26.5824 20.1781 27.1631 18.9439 26.8163C18.6723 26.74 18.3563 26.5736 17.7244 26.2408L17.5419 26.1447C17.4073 26.0739 17.3401 26.0386 17.2756 26.0088C16.4937 25.649 15.5863 25.6886 14.8388 26.1151C14.7771 26.1504 14.7132 26.1915 14.5853 26.2738C14.3085 26.4519 14.1701 26.541 14.0579 26.5991C12.6393 27.3326 10.8985 26.6631 10.3368 25.168C10.2924 25.0498 10.2493 24.891 10.1632 24.5732C10.1235 24.4264 10.1036 24.3531 10.0814 24.2856C9.81232 23.4682 9.16521 22.8307 8.34371 22.574C8.27591 22.5528 8.20227 22.534 8.05499 22.4964L7.85504 22.4455C7.16301 22.2691 6.817 22.181 6.56429 22.0556C5.41567 21.486 4.83499 20.1796 5.18176 18.9452C5.25805 18.6738 5.42443 18.3578 5.75716 17.7259L5.85329 17.5432C5.92411 17.4088 5.95951 17.3415 5.98921 17.277C6.34909 16.4952 6.30949 15.5878 5.88288 14.8402C5.84767 14.7786 5.80655 14.7146 5.72428 14.5868C5.54612 14.31 5.45704 14.1716 5.39901 14.0594C4.66555 12.6407 5.335 10.8999 6.83 10.3383C6.94828 10.2939 7.10715 10.2508 7.42487 10.1647C7.57156 10.1249 7.64491 10.1051 7.7124 10.0828C8.52993 9.81379 9.16736 9.16668 9.42407 8.34519C9.44525 8.27737 9.46403 8.20373 9.50157 8.05645L9.55253 7.85651C9.72895 7.16448 9.81715 6.81847 9.94247 6.56576C10.5121 5.41715 11.8185 4.83645 13.0528 5.18323C13.3243 5.25952 13.6403 5.42589 14.2721 5.75863L14.4548 5.85476C14.5892 5.92557 14.6565 5.96097 14.7211 5.99068C15.5028 6.35056 16.4103 6.31096 17.1579 5.88436C17.2195 5.84913 17.2835 5.80801 17.4112 5.72576Z" stroke="#009865" stroke-width="1.75" stroke-linecap="round"/>
<path d="M12.666 19.3332L19.3327 12.6665" stroke="#009865" stroke-width="1.75" stroke-linecap="round"/>
</svg>
