<svg width="32" height="32" viewBox="0 0 32 32" fill="none" xmlns="http://www.w3.org/2000/svg">
<path d="M4 8.00016C4 6.5274 5.19391 5.3335 6.66667 5.3335H25.3333C26.8061 5.3335 28 6.5274 28 8.00016V20.6668C28 22.1396 26.8061 23.3335 25.3333 23.3335H20.4379C19.7307 23.3335 19.0524 23.6144 18.5523 24.1146L16.9428 25.724C16.4221 26.2447 15.5779 26.2447 15.0572 25.724L13.4477 24.1146C12.9476 23.6144 12.2693 23.3335 11.5621 23.3335H6.66667C5.19391 23.3335 4 22.1396 4 20.6668V8.00016Z" stroke="currentColor" stroke-width="1.5" stroke-linecap="round"/>
<path d="M19.0335 9.3335C17.6955 9.3335 16.8806 9.98442 16.4374 10.5183C16.2468 10.748 15.7547 10.748 15.564 10.5183C15.1208 9.98438 14.3061 9.3335 12.9679 9.3335C10.7001 9.3335 9.33398 11.3421 9.33398 12.9974C9.33398 15.3863 14.2776 18.8538 15.6507 19.7707C15.8653 19.914 16.136 19.914 16.3507 19.7708C17.7239 18.854 22.6673 15.3875 22.6673 12.9979C22.6673 11.3421 21.3023 9.3335 19.0335 9.3335Z" stroke="currentColor" stroke-width="1.5" stroke-linecap="round"/>
</svg>
