<svg width="25" height="37" viewBox="0 0 25 37" fill="none" xmlns="http://www.w3.org/2000/svg">
<path d="M3.75625 7.65495L8.37868 3.115L12.9962 7.67992L8.35407 12.2198L3.75625 7.65495Z" fill="#5DAA1A"/>
<path d="M16.1688 0.0409703C16.7368 1.28045 16.7368 1.28045 16.7368 1.28045C14.0738 2.53116 13.3898 7.76063 13.3649 9.67738C13.3333 21.3779 13.3333 21.3779 13.3333 21.3779C11.9738 21.3942 11.9738 21.3942 11.9738 21.3942C12.0056 9.6138 12.0056 9.6138 12.0056 9.6138C11.9868 9.29428 12.1643 1.927 16.1688 0.0409703Z" fill="#5DAA1A"/>
<path d="M24.0922 13.4595L0.962769 13.397L0.90125 36.159L24.0307 36.2215L24.0922 13.4595Z" fill="#E33226"/>
<path d="M12.6796 15.7446L21.5846 15.7687L21.5602 24.7936L12.6796 15.7446Z" fill="white"/>
</svg>
