<svg width="48" height="48" viewBox="0 0 48 48" fill="none" xmlns="http://www.w3.org/2000/svg">
<circle cx="24" cy="24" r="24" fill="#3B5998"/>
<path d="M22.9663 15.9271C23.7196 15.2589 24.786 15.0318 25.7966 15.0055C26.8633 14.9967 27.9301 15.0011 28.9965 15.0011C29.0012 16.0537 29.0012 17.1019 28.9965 18.1544C28.3089 18.1544 27.6164 18.1544 26.9288 18.1544C26.4936 18.1281 26.0446 18.4383 25.9651 18.8445C25.9557 19.5478 25.9604 20.2508 25.9604 20.9541C26.9708 20.9584 27.9814 20.9541 28.9918 20.9584C28.917 21.976 28.7814 22.9893 28.6223 23.994C27.7287 24.0027 26.8352 23.994 25.9416 23.9984C25.9322 26.9988 25.9463 29.9949 25.9369 32.9956C24.6081 33 23.2844 32.9912 21.9556 33C21.9321 29.9995 21.9556 26.9991 21.9415 23.9984C21.2959 23.994 20.6456 24.0027 20 23.994C20.0047 22.985 20 21.9762 20 20.9716C20.6456 20.9628 21.2959 20.9716 21.9415 20.9672C21.9603 19.9889 21.9227 19.0062 21.9603 18.0279C22.0307 17.2462 22.3441 16.4643 22.9663 15.9271Z" fill="white"/>
</svg>
