<svg width="22" height="22" viewBox="0 0 22 22" fill="none" xmlns="http://www.w3.org/2000/svg">
<g clip-path="url(#clip0_824_1458)">
<path d="M9.30708 4.72109C9.89299 4.20137 10.7224 4.02472 11.5085 4.00426C12.3382 3.99744 13.1678 4.00085 13.9973 4.00085C14.0009 4.81953 14.0009 5.6348 13.9973 6.45348C13.4625 6.45348 12.9238 6.45348 12.3891 6.45348C12.0506 6.43302 11.7014 6.67424 11.6395 6.99024C11.6322 7.53724 11.6359 8.08402 11.6359 8.63101C12.4217 8.63442 13.2078 8.63101 13.9936 8.63442C13.9354 9.42582 13.83 10.214 13.7062 10.9954C13.0112 11.0022 12.3162 10.9954 11.6212 10.9988C11.6139 13.3326 11.6249 15.6629 11.6176 17.9968C10.5841 18.0002 9.5545 17.9934 8.52101 18.0002C8.50275 15.6665 8.52101 13.3328 8.51006 10.9988C8.00792 10.9954 7.50214 11.0022 7 10.9954C7.00365 10.2106 7 9.42604 7 8.64465C7.50214 8.63783 8.00792 8.64465 8.51006 8.64124C8.52467 7.88031 8.49545 7.11597 8.52467 6.35503C8.57944 5.7471 8.82321 5.13895 9.30708 4.72109Z" fill="currentColor"/>
</g>
<defs>
<clipPath id="clip0_824_1458">
<rect width="7" height="14" fill="white" transform="translate(7 4)"/>
</clipPath>
</defs>
</svg>
