<svg width="24" height="24" viewBox="0 0 24 24" fill="none" xmlns="http://www.w3.org/2000/svg">
<path d="M10.9663 2.9271C11.7196 2.2589 12.786 2.03178 13.7966 2.00548C14.8633 1.99671 15.9301 2.0011 16.9965 2.0011C17.0012 3.05367 17.0012 4.10185 16.9965 5.15442C16.3089 5.15442 15.6164 5.15442 14.9288 5.15442C14.4936 5.12812 14.0446 5.43825 13.9651 5.84454C13.9557 6.54781 13.9604 7.2508 13.9604 7.95407C14.9708 7.95845 15.9814 7.95407 16.9918 7.95845C16.917 8.97595 16.7814 9.98935 16.6223 10.994C15.7287 11.0027 14.8352 10.994 13.9416 10.9984C13.9322 13.9988 13.9463 16.9949 13.9369 19.9956C12.6081 20 11.2844 19.9912 9.95559 20C9.93211 16.9995 9.95559 13.9991 9.9415 10.9984C9.2959 10.994 8.6456 11.0027 8 10.994C8.0047 9.98496 8 8.97623 8 7.9716C8.6456 7.96283 9.2959 7.9716 9.9415 7.96722C9.96029 6.98889 9.92272 6.00618 9.96029 5.02785C10.0307 4.24623 10.3441 3.46434 10.9663 2.9271Z" fill="#395693"/>
</svg>
