<svg width="25" height="24" viewBox="0 0 25 24" fill="none" xmlns="http://www.w3.org/2000/svg">
<g clip-path="url(#clip0_539_4051)">
<path d="M19 14L17.5681 8.27239C17.2342 6.93689 16.0343 6 14.6577 6H11.3423C9.96573 6 8.76578 6.93689 8.4319 8.27239L7 14M9 14L10.3151 8.73976M19.5 6.5L22 4M20.5 9.5L22.5 9M6.5 6.5L4 4M5.5 9.5L3.5 9M7.5 20H18.5C19.3284 20 20 19.3284 20 18.5V17.5C20 16.6716 19.3284 16 18.5 16H7.5C6.67157 16 6 16.6716 6 17.5V18.5C6 19.3284 6.67157 20 7.5 20Z" stroke="currentColor" stroke-width="1.25" stroke-linecap="round"/>
</g>
<defs>
<clipPath id="clip0_539_4051">
<rect width="24" height="24" fill="white" transform="translate(0.5)"/>
</clipPath>
</defs>
</svg>
