<svg width="24" height="24" viewBox="0 0 24 24" fill="none" xmlns="http://www.w3.org/2000/svg">
<path d="M3 6.5V18C3 19.1046 3.89543 20 5 20H19C20.1046 20 21 19.1046 21 18V6.5M3 6.5V6C3 4.89543 3.89543 4 5 4H19C20.1046 4 21 4.89543 21 6V6.5M3 6.5H21M14.5 13.5H17.5M14.5 10.5H18.5M5.48894 15.5821C6.16813 14.3413 7.48581 13.5 9 13.5C10.5142 13.5 11.8319 14.3413 12.5111 15.5821C13.0414 16.551 12.1046 17.5 11 17.5H7C5.89543 17.5 4.95855 16.551 5.48894 15.5821ZM10.5 10.5C10.5 11.3284 9.82843 12 9 12C8.17157 12 7.5 11.3284 7.5 10.5C7.5 9.67157 8.17157 9 9 9C9.82843 9 10.5 9.67157 10.5 10.5Z" stroke="currentColor" stroke-width="1.25" stroke-linecap="round"/>
</svg>
