<svg width="22" height="22" viewBox="0 0 22 22" fill="none" xmlns="http://www.w3.org/2000/svg">
<path d="M14.75 3.5H7.25C5.18 3.5 3.5 5.18 3.5 7.25V14.75C3.5 16.82 5.18 18.5 7.25 18.5H14.75C16.82 18.5 18.5 16.82 18.5 14.75V7.25C18.5 5.18 16.82 3.5 14.75 3.5ZM11 14.75C8.93 14.75 7.25 13.07 7.25 11C7.25 8.93 8.93 7.25 11 7.25C13.07 7.25 14.75 8.93 14.75 11C14.75 13.07 13.07 14.75 11 14.75ZM15.0125 7.715C14.6 7.715 14.2625 7.3775 14.2625 6.965C14.2625 6.5525 14.6 6.215 15.0125 6.215C15.425 6.215 15.7625 6.5525 15.7625 6.965C15.7625 7.3775 15.425 7.715 15.0125 7.715Z" fill="currentColor"/>
<path d="M11 13.25C12.2426 13.25 13.25 12.2426 13.25 11C13.25 9.75736 12.2426 8.75 11 8.75C9.75736 8.75 8.75 9.75736 8.75 11C8.75 12.2426 9.75736 13.25 11 13.25Z" fill="currentColor"/>
</svg>
