<svg width="24" height="24" viewBox="0 0 24 24" fill="none" xmlns="http://www.w3.org/2000/svg">
<rect width="24" height="24" fill="white"/>
<g clip-path="url(#clip0_343_2687)">
<path d="M20.9459 8.28936C20.9021 7.33136 20.7499 6.6771 20.5275 6.10475C20.3015 5.5042 19.9472 4.96017 19.4894 4.51063C19.0398 4.05271 18.4958 3.69836 17.8952 3.47229C17.3227 3.24993 16.6686 3.09791 15.7106 3.05439C14.7509 3.01044 14.4442 3 12 3C9.55583 3 9.24916 3.01044 8.28936 3.05414C7.33136 3.09791 6.67727 3.25007 6.10475 3.47254C5.50418 3.6985 4.96014 4.05279 4.51059 4.51066C4.05268 4.96016 3.69833 5.50413 3.47225 6.10465C3.24989 6.67717 3.09787 7.33139 3.05435 8.28926C3.01044 9.24916 3 9.55569 3 11.9999C3 14.4442 3.01044 14.7508 3.05439 15.7106C3.09805 16.6685 3.25021 17.3227 3.47268 17.8953C3.69864 18.4958 4.05291 19.0398 4.51077 19.4893C4.96028 19.9471 5.5043 20.3014 6.10486 20.5273C6.67727 20.7499 7.3315 20.9019 8.2895 20.9458C9.24945 20.9896 9.55594 20.9999 12.0001 20.9999C14.4443 20.9999 14.751 20.9896 15.7108 20.9458C16.6688 20.9019 17.3229 20.7499 17.8954 20.5273C18.4932 20.2961 19.0362 19.9426 19.4895 19.4893C19.9427 19.0361 20.2963 18.4931 20.5275 17.8952C20.7501 17.3227 20.9021 16.6685 20.9459 15.7106C20.9896 14.7507 21 14.4442 21 12C21 9.55569 20.9896 9.24916 20.9459 8.28936ZM19.3259 15.6369C19.2859 16.5145 19.1392 16.991 19.016 17.3081C18.8663 17.6962 18.637 18.0487 18.3428 18.3429C18.0486 18.6371 17.6961 18.8664 17.3079 19.0162C16.9908 19.1394 16.5143 19.286 15.6368 19.326C14.688 19.3694 14.4033 19.3785 12 19.3785C9.59665 19.3785 9.31209 19.3694 8.36312 19.326C7.48576 19.286 7.00925 19.1394 6.692 19.0162C6.30111 18.8718 5.94752 18.6418 5.65721 18.3429C5.35827 18.0526 5.12819 17.699 4.9839 17.3081C4.86071 16.991 4.71404 16.5145 4.67407 15.6369C4.63083 14.688 4.62162 14.4033 4.62162 12.0002C4.62162 9.59689 4.63083 9.31237 4.67407 8.36326C4.71415 7.48576 4.86071 7.00922 4.9839 6.69214C5.12824 6.30122 5.35831 5.94758 5.65721 5.65721C5.94752 5.35826 6.30117 5.12823 6.69214 4.98404C7.00925 4.86071 7.48576 4.71418 8.3633 4.67407C9.31223 4.63083 9.59693 4.62162 12 4.62162H11.9999C14.403 4.62162 14.6877 4.63083 15.6368 4.67421C16.5143 4.71418 16.9907 4.86086 17.3079 4.98404C17.6988 5.12837 18.0524 5.35839 18.3427 5.65721C18.6417 5.94751 18.8717 6.30117 19.0159 6.69214C19.1392 7.00925 19.2859 7.48576 19.3259 8.3633C19.3691 9.31223 19.3783 9.59693 19.3783 12C19.3783 14.4033 19.3692 14.6878 19.3259 15.6369Z" fill="url(#paint0_linear_343_2687)"/>
<path d="M11.9998 7.37836C9.44745 7.37836 7.3783 9.44758 7.3783 12C7.3783 14.5524 9.44745 16.6215 11.9998 16.6215C14.5524 16.6215 16.6215 14.5524 16.6215 12C16.6215 9.44758 14.5524 7.37836 11.9998 7.37836ZM11.9998 15C10.3431 14.9998 8.99988 13.6567 9.00002 11.9999C9.00002 10.3431 10.3431 8.9999 12 8.9999C13.6569 9.00004 14.9999 10.3431 14.9999 11.9999C14.9999 13.6567 13.6567 15 11.9998 15Z" fill="url(#paint1_linear_343_2687)"/>
<path d="M17.8842 7.19583C17.8842 7.79225 17.4006 8.27576 16.8042 8.27576C16.2077 8.27576 15.7241 7.79222 15.7241 7.19583C15.7241 6.59923 16.2077 6.11572 16.8042 6.11572C17.4006 6.11572 17.8842 6.59926 17.8842 7.19583H17.8842Z" fill="url(#paint2_linear_343_2687)"/>
</g>
<defs>
<linearGradient id="paint0_linear_343_2687" x1="4.51052" y1="19.4893" x2="19.4895" y2="4.51038" gradientUnits="userSpaceOnUse">
<stop stop-color="#FFD600"/>
<stop offset="0.5" stop-color="#FF0100"/>
<stop offset="1" stop-color="#D800B9"/>
</linearGradient>
<linearGradient id="paint1_linear_343_2687" x1="8.73195" y1="15.2679" x2="15.2679" y2="8.73198" gradientUnits="userSpaceOnUse">
<stop stop-color="#FF6400"/>
<stop offset="0.5" stop-color="#FF0100"/>
<stop offset="1" stop-color="#FD0056"/>
</linearGradient>
<linearGradient id="paint2_linear_343_2687" x1="16.0405" y1="7.95942" x2="17.5678" y2="6.43209" gradientUnits="userSpaceOnUse">
<stop stop-color="#F30072"/>
<stop offset="1" stop-color="#E50097"/>
</linearGradient>
<clipPath id="clip0_343_2687">
<rect width="18" height="18" fill="white" transform="translate(3 3)"/>
</clipPath>
</defs>
</svg>
