<svg width="20" height="20" viewBox="0 0 20 20" fill="none" xmlns="http://www.w3.org/2000/svg">
<g clip-path="url(#clip0_1391_226)">
<path d="M19.9398 5.87707C19.8912 4.81262 19.7221 4.08566 19.475 3.44973C19.2239 2.78244 18.8303 2.17797 18.3215 1.67848C17.822 1.16968 17.2176 0.775957 16.5503 0.524766C15.9141 0.277695 15.1874 0.108789 14.1229 0.0604297C13.0565 0.0116016 12.7157 0 10 0C7.28426 0 6.94352 0.0116016 5.87707 0.0601562C4.81262 0.108789 4.08586 0.277852 3.44973 0.525039C2.78242 0.776115 2.17794 1.16976 1.67844 1.67852C1.16964 2.17795 0.775921 2.78237 0.524727 3.44961C0.277656 4.08574 0.10875 4.81266 0.0603906 5.87695C0.0116016 6.94352 0 7.2841 0 9.99984C0 12.7157 0.0116016 13.0565 0.0604297 14.1229C0.108945 15.1872 0.278008 15.9141 0.525195 16.5503C0.776268 17.2175 1.1699 17.822 1.67863 18.3214C2.17809 18.8302 2.78256 19.2238 3.44984 19.4748C4.08586 19.7221 4.81277 19.8911 5.87723 19.9397C6.94383 19.9884 7.28437 19.9999 10.0002 19.9999C12.7159 19.9999 13.0566 19.9884 14.1231 19.9397C15.1875 19.8911 15.9143 19.7221 16.5504 19.4748C17.2147 19.2179 17.818 18.8251 18.3216 18.3215C18.8253 17.8179 19.2181 17.2146 19.475 16.5503C19.7223 15.9141 19.8912 15.1872 19.9399 14.1229C19.9884 13.0563 20 12.7157 20 10C20 7.2841 19.9884 6.94352 19.9398 5.87707ZM18.1398 14.041C18.0954 15.0161 17.9325 15.5455 17.7956 15.8979C17.6292 16.3291 17.3744 16.7208 17.0475 17.0477C16.7207 17.3746 16.329 17.6294 15.8977 17.7957C15.5454 17.9326 15.0159 18.0956 14.0409 18.14C12.9866 18.1882 12.6703 18.1983 10 18.1983C7.32961 18.1983 7.01344 18.1882 5.95902 18.14C4.98418 18.0956 4.45473 17.9326 4.10223 17.7957C3.6679 17.6354 3.27502 17.3797 2.95246 17.0476C2.6203 16.7251 2.36466 16.3322 2.20434 15.8979C2.06746 15.5455 1.90449 15.0161 1.86008 14.041C1.81203 12.9866 1.8018 12.6703 1.8018 10.0002C1.8018 7.32988 1.81203 7.01375 1.86008 5.95918C1.90461 4.98418 2.06746 4.45469 2.20434 4.10238C2.36471 3.66802 2.62034 3.27509 2.95246 2.95246C3.27502 2.62029 3.66797 2.3647 4.10238 2.20449C4.45473 2.06746 4.98418 1.90465 5.95922 1.86008C7.01359 1.81203 7.32992 1.8018 10 1.8018H9.99988C12.67 1.8018 12.9863 1.81203 14.0409 1.86023C15.0159 1.90465 15.5452 2.06762 15.8977 2.20449C16.332 2.36485 16.7249 2.62043 17.0475 2.95246C17.3796 3.27501 17.6353 3.66797 17.7955 4.10238C17.9325 4.45473 18.0955 4.98418 18.1398 5.95922C18.1879 7.01359 18.1981 7.32992 18.1981 10C18.1981 12.6704 18.188 12.9864 18.1398 14.041Z" fill="#009865"/>
<path d="M10.0003 4.86487C7.1643 4.86487 4.86523 7.16401 4.86523 10C4.86523 12.836 7.1643 15.1351 10.0003 15.1351C12.8364 15.1351 15.1355 12.836 15.1355 10C15.1355 7.16401 12.8364 4.86487 10.0003 4.86487ZM10.0003 13.3333C8.15945 13.3331 6.66699 11.8408 6.66715 9.99987C6.66715 8.15905 8.15945 6.66659 10.0004 6.66659C11.8414 6.66674 13.3337 8.15905 13.3337 9.99987C13.3337 11.8408 11.8413 13.3333 10.0003 13.3333Z" fill="#009865"/>
<path d="M16.5387 4.66203C16.5387 5.32473 16.0014 5.86195 15.3388 5.86195C14.6759 5.86195 14.1387 5.32469 14.1387 4.66203C14.1387 3.99914 14.6759 3.46191 15.3388 3.46191C16.0014 3.46191 16.5388 3.99918 16.5388 4.66203H16.5387Z" fill="#009865"/>
</g>
<defs>
<clipPath id="clip0_1391_226">
<rect width="20" height="20" fill="white"/>
</clipPath>
</defs>
</svg>
