<svg width="48" height="48" viewBox="0 0 48 48" fill="none" xmlns="http://www.w3.org/2000/svg">
<circle cx="24" cy="24" r="24" fill="#F48420"/>
<path d="M23.9999 15C21.5182 15 19.5 17.0182 19.5 19.4999C19.5 21.9816 21.5182 23.9999 23.9999 23.9999C26.4816 23.9999 28.4999 21.9816 28.4999 19.4999C28.4999 17.0182 26.4816 15 23.9999 15ZM23.9999 21.7499C22.7591 21.7499 21.75 20.7408 21.75 19.4999C21.75 18.2591 22.7591 17.25 23.9999 17.25C25.2408 17.25 26.2499 18.2591 26.2499 19.4999C26.2499 20.7408 25.2408 21.7499 23.9999 21.7499Z" fill="white"/>
<path d="M29.9668 23.875C29.527 23.4351 28.816 23.4351 28.3761 23.875C25.9641 26.2869 22.038 26.2869 19.6249 23.875C19.185 23.4351 18.474 23.4351 18.0341 23.875C17.5943 24.3148 17.5943 25.0258 18.0341 25.4668C19.4336 26.8663 21.2077 27.6639 23.0369 27.872L19.8296 31.0794C19.3898 31.5192 19.3898 32.2302 19.8296 32.6701C20.2695 33.11 20.9805 33.11 21.4203 32.6701L23.9999 30.0905L26.5795 32.6701C26.6839 32.7747 26.8078 32.8577 26.9443 32.9142C27.0808 32.9708 27.2271 32.9998 27.3749 32.9997C27.5226 32.9998 27.6689 32.9708 27.8054 32.9142C27.9419 32.8577 28.0659 32.7747 28.1702 32.6701C28.6101 32.2302 28.6101 31.5192 28.1702 31.0794L24.9629 27.872C26.7921 27.6639 28.5662 26.8663 29.9657 25.4668C30.4056 25.027 30.4056 24.3148 29.9668 23.875Z" fill="white"/>
</svg>
