<svg width="32" height="32" viewBox="0 0 32 32" fill="none" xmlns="http://www.w3.org/2000/svg">
<path d="M25.3327 13.6863C25.3327 17.4812 20.6359 23.766 17.906 27.0984C16.9072 28.3176 15.0915 28.3176 14.0927 27.0984C11.3628 23.766 6.66602 17.4812 6.66602 13.6863C6.66602 8.33669 10.8447 4 15.9993 4C21.154 4 25.3327 8.33669 25.3327 13.6863Z" stroke="currentColor" stroke-width="1.5" stroke-linecap="round"/>
<path d="M19.4666 13.3334C19.4666 15.248 17.9144 16.8001 15.9999 16.8001C14.0853 16.8001 12.5332 15.248 12.5332 13.3334C12.5332 11.4188 14.0853 9.8667 15.9999 9.8667C17.9144 9.8667 19.4666 11.4188 19.4666 13.3334Z" stroke="currentColor" stroke-width="1.5" stroke-linecap="round"/>
</svg>
