<svg width="22" height="22" viewBox="0 0 22 22" fill="none" xmlns="http://www.w3.org/2000/svg">
<path fill-rule="evenodd" clip-rule="evenodd" d="M10.428 2C15.0752 2 18.8552 5.78002 18.8552 10.4272C18.8552 12.6197 18.0138 14.6193 16.6369 16.1201L19.3462 18.8238C19.5998 19.0773 19.6006 19.4875 19.3471 19.7411C19.2207 19.8692 19.0537 19.9323 18.8876 19.9323C18.7223 19.9323 18.5561 19.8692 18.4289 19.7428L15.6869 17.0084C14.2445 18.1636 12.4155 18.8552 10.428 18.8552C5.78089 18.8552 2 15.0743 2 10.4272C2 5.78002 5.78089 2 10.428 2ZM10.428 3.29808C6.49656 3.29808 3.29808 6.4957 3.29808 10.4272C3.29808 14.3586 6.49656 17.5571 10.428 17.5571C14.3586 17.5571 17.5571 14.3586 17.5571 10.4272C17.5571 6.4957 14.3586 3.29808 10.428 3.29808Z" fill="currentColor" stroke="currentColor" stroke-width="0.5"/>
</svg>
