<svg width="24" height="24" viewBox="0 0 24 24" fill="none" xmlns="http://www.w3.org/2000/svg">
<path d="M9.18598 10.6623L14.8093 7.82812M14.6707 16.5L9.09865 13.5M20.5 6.5C20.5 8.15685 19.1569 9.5 17.5 9.5C15.8431 9.5 14.5 8.15685 14.5 6.5C14.5 4.84315 15.8431 3.5 17.5 3.5C19.1569 3.5 20.5 4.84315 20.5 6.5ZM9.5 12C9.5 13.6569 8.15685 15 6.5 15C4.84315 15 3.5 13.6569 3.5 12C3.5 10.3431 4.84315 9 6.5 9C8.15685 9 9.5 10.3431 9.5 12ZM20.5 17.5C20.5 19.1569 19.1569 20.5 17.5 20.5C15.8431 20.5 14.5 19.1569 14.5 17.5C14.5 15.8431 15.8431 14.5 17.5 14.5C19.1569 14.5 20.5 15.8431 20.5 17.5Z" stroke="currentColor" stroke-width="1.25" stroke-linecap="round"/>
</svg>
