<svg width="25" height="24" viewBox="0 0 25 24" fill="none" xmlns="http://www.w3.org/2000/svg">
<path d="M3.89218 10.968C3.89218 10.968 12.7377 7.45574 15.8055 6.21897C16.9815 5.72431 20.9696 4.14124 20.9696 4.14124C20.9696 4.14124 22.8104 3.44871 22.6569 5.13064C22.6058 5.82324 22.1968 8.2472 21.7877 10.8691C21.1741 14.5793 20.5095 18.6358 20.5095 18.6358C20.5095 18.6358 20.4072 19.7736 19.538 19.9715C18.6688 20.1694 17.2371 19.279 16.9815 19.081C16.7769 18.9327 13.1467 16.7065 11.8173 15.6182C11.4594 15.3214 11.0504 14.7278 11.8684 14.0352C13.7092 12.4027 15.9077 10.3744 17.2371 9.08824C17.8507 8.49457 18.4642 7.10944 15.9077 8.79137C12.2775 11.2154 8.69841 13.491 8.69841 13.491C8.69841 13.491 7.88031 13.9857 6.34643 13.5404C4.81247 13.0953 3.02291 12.5016 3.02291 12.5016C3.02291 12.5016 1.79586 11.7596 3.89218 10.968Z" fill="#1FA3E0"/>
</svg>
