<svg width="48" height="48" viewBox="0 0 48 48" fill="none" xmlns="http://www.w3.org/2000/svg">
<circle cx="24" cy="24" r="24" fill="#00ADEE"/>
<path d="M15.2262 22.968C15.2262 22.968 24.0717 19.4557 27.1395 18.219C28.3155 17.7243 32.3036 16.1412 32.3036 16.1412C32.3036 16.1412 34.1443 15.4487 33.9909 17.1306C33.9398 17.8232 33.5307 20.2472 33.1217 22.8691C32.5081 26.5793 31.8434 30.6358 31.8434 30.6358C31.8434 30.6358 31.7412 31.7736 30.872 31.9715C30.0028 32.1694 28.5711 31.279 28.3155 31.081C28.1109 30.9327 24.4807 28.7065 23.1513 27.6182C22.7934 27.3214 22.3844 26.7278 23.2024 26.0352C25.0431 24.4027 27.2417 22.3744 28.5711 21.0882C29.1847 20.4946 29.7982 19.1094 27.2417 20.7914C23.6115 23.2154 20.0324 25.491 20.0324 25.491C20.0324 25.491 19.2143 25.9857 17.6804 25.5404C16.1465 25.0953 14.3569 24.5016 14.3569 24.5016C14.3569 24.5016 13.1298 23.7596 15.2262 22.968Z" fill="white"/>
</svg>
