<svg width="22" height="22" viewBox="0 0 22 22" fill="none" xmlns="http://www.w3.org/2000/svg">
<path d="M2.68855 10.14C2.68855 10.14 10.0598 7.21303 12.6163 6.1824C13.5963 5.77017 16.9198 4.45095 16.9198 4.45095C16.9198 4.45095 18.4537 3.87384 18.3258 5.27545C18.2832 5.85262 17.9424 7.87259 17.6015 10.0575C17.0902 13.1494 16.5363 16.5298 16.5363 16.5298C16.5363 16.5298 16.4511 17.478 15.7267 17.6428C15.0024 17.8077 13.8093 17.0657 13.5963 16.9008C13.4258 16.7771 10.4007 14.922 9.29286 14.0151C8.99459 13.7677 8.65374 13.2731 9.33543 12.6959C10.8694 11.3355 12.7015 9.64529 13.8093 8.57345C14.3207 8.07873 14.8319 6.92445 12.7015 8.32606C9.67634 10.3461 6.69375 12.2424 6.69375 12.2424C6.69375 12.2424 6.01199 12.6546 4.73376 12.2836C3.45546 11.9126 1.96416 11.4179 1.96416 11.4179C1.96416 11.4179 0.941621 10.7996 2.68855 10.14Z" fill="currentColor"/>
</svg>
