<svg width="24" height="24" viewBox="0 0 24 24" fill="none" xmlns="http://www.w3.org/2000/svg">
<path d="M3.22617 10.968C3.22617 10.968 12.0717 7.45574 15.1395 6.21897C16.3155 5.72431 20.3036 4.14124 20.3036 4.14124C20.3036 4.14124 22.1443 3.44871 21.9909 5.13064C21.9398 5.82324 21.5307 8.2472 21.1217 10.8691C20.5081 14.5793 19.8434 18.6358 19.8434 18.6358C19.8434 18.6358 19.7412 19.7736 18.872 19.9715C18.0028 20.1694 16.5711 19.279 16.3155 19.081C16.1109 18.9327 12.4807 16.7065 11.1513 15.6182C10.7934 15.3214 10.3844 14.7278 11.2024 14.0352C13.0431 12.4027 15.2417 10.3744 16.5711 9.08824C17.1847 8.49457 17.7982 7.10944 15.2417 8.79137C11.6115 11.2154 8.0324 13.491 8.0324 13.491C8.0324 13.491 7.21429 13.9857 5.68041 13.5404C4.14645 13.0953 2.3569 12.5016 2.3569 12.5016C2.3569 12.5016 1.12985 11.7596 3.22617 10.968Z" fill="#1FA3E0"/>
</svg>
