<svg width="25" height="24" viewBox="0 0 25 24" fill="none" xmlns="http://www.w3.org/2000/svg">
<path d="M19.2925 3.97067C18.7901 3.52118 16.7806 2.0405 12.2592 2.01406C12.2592 2.01406 6.94468 1.69677 4.35349 4.07643C2.89926 5.53067 2.39688 7.61948 2.344 10.2371C2.29112 12.8547 2.21181 17.7462 6.94468 19.0947V21.1306C6.94468 21.1306 6.91824 21.9503 7.44705 22.109C8.10807 22.3205 8.47823 21.6859 9.11281 21.0249C9.45654 20.6547 9.93247 20.1259 10.2762 19.7029C13.502 19.9673 15.9874 19.3591 16.2782 19.2534C16.9392 19.0418 20.6145 18.5659 21.2226 13.6744C21.8572 8.59779 20.9582 5.39846 19.2925 3.97067ZM19.8477 13.2778C19.3453 17.3761 16.3576 17.6405 15.8023 17.7991C15.5643 17.8784 13.3962 18.4073 10.6464 18.2486C10.6464 18.2486 8.61044 20.7076 7.94942 21.3686C7.84366 21.4744 7.7379 21.5008 7.65857 21.5008C7.55281 21.4744 7.52637 21.3422 7.52637 21.1571C7.52637 20.8927 7.55281 17.7727 7.55281 17.7727C3.56027 16.6622 3.79824 12.4846 3.82468 10.29C3.87756 8.09541 4.27418 6.32388 5.49044 5.10761C7.68502 3.12457 12.2064 3.41541 12.2064 3.41541C16.0138 3.44185 17.8382 4.5788 18.2613 4.97541C19.6362 6.19168 20.3501 9.07372 19.8477 13.2778Z" fill="#A549DE"/>
<path d="M14.1098 10.1314C14.0569 9.12664 13.5545 8.59781 12.5762 8.54492" stroke="#A549DE" stroke-width="0.7" stroke-linecap="round" stroke-linejoin="round"/>
<path d="M15.4319 10.5545C15.4583 9.62906 15.1674 8.83581 14.6122 8.22765C14.0305 7.59305 13.2372 7.24931 12.2324 7.16998" stroke="#A549DE" stroke-width="0.7" stroke-linecap="round" stroke-linejoin="round"/>
<path d="M16.7544 11.0834C16.7544 9.47045 16.252 8.20125 15.3001 7.2758C14.3482 6.35034 13.1583 5.87439 11.7305 5.87439" stroke="#A549DE" stroke-width="0.7" stroke-linecap="round" stroke-linejoin="round"/>
<path d="M12.6291 13.5422C12.6291 13.5422 12.9993 13.5686 13.1844 13.3306L13.5546 12.8547C13.7396 12.6167 14.1627 12.4581 14.6122 12.6961C14.8501 12.8283 15.2732 13.0927 15.5376 13.3042C15.8285 13.5157 16.4101 13.9916 16.4101 13.9916C16.701 14.2296 16.7539 14.5733 16.5688 14.9435C16.3837 15.2872 16.1193 15.6045 15.7756 15.8954C15.5112 16.1333 15.2468 16.2391 14.9824 16.292H14.8766C14.7708 16.292 14.6386 16.2655 14.5329 16.2391C14.1362 16.1333 13.4752 15.8425 12.3383 15.2344C11.6244 14.8378 11.0163 14.4147 10.5139 14.0181C10.2495 13.8066 9.95863 13.5686 9.69422 13.2778L9.58846 13.172C9.29761 12.8811 9.05964 12.6167 8.84812 12.3523C8.45151 11.85 8.02845 11.2418 7.63184 10.5279C7.02371 9.41742 6.73287 8.7564 6.6271 8.33335C6.60066 8.22759 6.57422 8.12183 6.57422 7.98963V7.88386C6.60066 7.61945 6.73286 7.35504 6.97083 7.09064C7.26168 6.77335 7.57897 6.50894 7.92269 6.29742C8.29286 6.11233 8.63659 6.16522 8.87456 6.45606C8.87456 6.45606 9.35049 7.03776 9.56202 7.32861C9.7471 7.59302 10.0115 8.01607 10.1701 8.25403C10.4081 8.67708 10.2495 9.12657 10.0379 9.31166L9.56202 9.68183C9.32405 9.86691 9.35049 10.2371 9.35049 10.2371C9.35049 10.2371 10.0115 12.8547 12.6291 13.5422Z" fill="#A549DE"/>
</svg>
