<svg width="48" height="48" viewBox="0 0 48 48" fill="none" xmlns="http://www.w3.org/2000/svg">
<circle cx="24" cy="24" r="24" fill="#4C75A3"/>
<path d="M33.8937 28.8373C33.8694 28.7825 33.8469 28.7368 33.8259 28.7003C33.4786 28.0432 32.8158 27.2363 31.8371 26.28L31.8161 26.2582L31.8058 26.247L31.7954 26.2364H31.7851C31.3408 25.7909 31.0596 25.4916 30.9418 25.338C30.7266 25.0464 30.6779 24.7507 30.796 24.4514C30.8797 24.2251 31.1919 23.747 31.7333 23.0166C32.0179 22.6299 32.2434 22.3198 32.4102 22.0855C33.611 20.4064 34.1314 19.3336 33.9719 18.866L33.9093 18.7565C33.8676 18.6906 33.7598 18.6304 33.5864 18.5757C33.4129 18.5209 33.1907 18.5123 32.9202 18.5485L29.9214 18.5709C29.852 18.5635 29.7826 18.5654 29.7129 18.576C29.6435 18.5872 29.5985 18.5981 29.5775 18.6089C29.5565 18.6201 29.5395 18.6291 29.5255 18.6362L29.4838 18.6691C29.4491 18.6909 29.411 18.7293 29.3693 18.7843C29.3276 18.8391 29.2926 18.9028 29.2653 18.9761C28.939 19.8594 28.5677 20.6807 28.1511 21.4402C27.8943 21.8928 27.6581 22.2855 27.4433 22.6174C27.2281 22.95 27.0476 23.1945 26.9019 23.351C26.7561 23.5079 26.624 23.6343 26.5062 23.7287C26.3882 23.8241 26.2978 23.8638 26.2357 23.8494C26.173 23.835 26.114 23.8202 26.0586 23.8052C25.9615 23.7396 25.883 23.6503 25.8243 23.537C25.7652 23.424 25.7253 23.2816 25.7043 23.11C25.6837 22.9385 25.6712 22.7906 25.6681 22.6664C25.6645 22.5422 25.6663 22.3672 25.6733 22.1409C25.6803 21.9146 25.6837 21.7616 25.6837 21.6809C25.6837 21.4038 25.6888 21.1026 25.6995 20.7774C25.7098 20.4525 25.7186 20.1952 25.7253 20.0054C25.7323 19.8159 25.7357 19.6149 25.7357 19.403C25.7357 19.1918 25.7235 19.0254 25.6992 18.9047C25.6748 18.7843 25.6383 18.6678 25.5899 18.5542C25.5412 18.4412 25.47 18.3535 25.3763 18.2918C25.2826 18.2297 25.1663 18.1804 25.0275 18.1439C24.6593 18.0562 24.1909 18.0091 23.6218 18.0015C22.3306 17.9874 21.501 18.0751 21.1331 18.2646C20.9873 18.3452 20.8552 18.4544 20.7375 18.5933C20.6124 18.7539 20.595 18.842 20.6854 18.8557C21.102 18.9216 21.3969 19.0788 21.5704 19.3269L21.6331 19.4581C21.6815 19.5535 21.7302 19.7212 21.7789 19.9619C21.8275 20.2029 21.8586 20.4692 21.8726 20.7614C21.9073 21.2943 21.9073 21.7504 21.8726 22.1303C21.8379 22.5102 21.805 22.8056 21.7737 23.0169C21.7423 23.2288 21.6955 23.4 21.6331 23.5316C21.5704 23.6634 21.529 23.7438 21.508 23.7729C21.487 23.802 21.47 23.8202 21.456 23.8276C21.3656 23.8638 21.2722 23.8823 21.1748 23.8823C21.0774 23.8823 20.9596 23.8311 20.8205 23.7287C20.6818 23.6269 20.5375 23.4861 20.3884 23.3072C20.239 23.1286 20.071 22.8783 19.8832 22.557C19.6957 22.2359 19.5013 21.8563 19.3001 21.4182L19.1337 21.1003C19.0296 20.8961 18.8872 20.5985 18.7067 20.208C18.5262 19.8175 18.3665 19.4398 18.2277 19.0743C18.172 18.9213 18.0889 18.8045 17.9778 18.7238L17.9258 18.6909C17.8911 18.6618 17.8354 18.6307 17.759 18.5981C17.6823 18.5651 17.6029 18.5414 17.5195 18.5267L14.6665 18.5485C14.3749 18.5485 14.1771 18.6182 14.073 18.7568L14.0313 18.8224C14.0103 18.8592 14 18.9178 14 18.9978C14 19.0785 14.021 19.1767 14.0627 19.2932C14.4793 20.3229 14.9321 21.3157 15.4215 22.2718C15.9112 23.2284 16.336 23.9988 16.6972 24.5826C17.0582 25.1671 17.4261 25.7179 17.801 26.2364C18.176 26.7549 18.424 27.0868 18.5454 27.2328C18.6668 27.3791 18.7621 27.4885 18.8318 27.5615L19.092 27.8246C19.2584 27.9997 19.5034 28.2096 19.826 28.4542C20.1489 28.699 20.5062 28.9397 20.8984 29.1765C21.2904 29.414 21.7472 29.607 22.2676 29.7571C22.7883 29.9069 23.295 29.9671 23.7877 29.9377H24.9852C25.2284 29.9159 25.4122 29.8359 25.537 29.6966L25.5787 29.6419C25.6064 29.5984 25.6325 29.5305 25.6569 29.4396C25.6809 29.3484 25.6934 29.2479 25.6934 29.1385C25.6861 28.8245 25.7089 28.5412 25.761 28.2896C25.813 28.0377 25.872 27.848 25.9381 27.7199C26.0041 27.5925 26.0784 27.4847 26.1621 27.397C26.2454 27.3093 26.3042 27.2568 26.3392 27.2382C26.3739 27.2203 26.4019 27.2075 26.4226 27.1998C26.589 27.1416 26.785 27.1982 27.0108 27.3695C27.2363 27.5413 27.4481 27.7526 27.6459 28.0048C27.8438 28.2567 28.0814 28.5393 28.3593 28.8536C28.6368 29.1676 28.8797 29.4009 29.0881 29.5542L29.2966 29.6861C29.4354 29.7735 29.6158 29.8538 29.838 29.9271C30.0602 29.9998 30.2546 30.0183 30.4211 29.9818L33.0867 29.9377C33.3505 29.9377 33.5553 29.8922 33.7011 29.8007C33.8469 29.7101 33.9336 29.609 33.9613 29.4995C33.989 29.39 33.9908 29.2665 33.9665 29.1273C33.9421 28.9887 33.9178 28.892 33.8937 28.8373Z" fill="white"/>
</svg>
