<svg width="22" height="22" viewBox="0 0 22 22" fill="none" xmlns="http://www.w3.org/2000/svg">
<path d="M19.899 15.9342C19.8759 15.884 19.8545 15.842 19.8346 15.8086C19.5047 15.2063 18.875 14.4666 17.9453 13.59L17.9253 13.57L17.9155 13.5597L17.9056 13.5501H17.8958C17.4737 13.1417 17.2066 12.8673 17.0947 12.7265C16.8903 12.4592 16.844 12.1881 16.9562 11.9138C17.0357 11.7064 17.3323 11.268 17.8467 10.5985C18.117 10.2441 18.3312 9.9598 18.4896 9.74504C19.6305 8.2059 20.1248 7.22244 19.9734 6.79379L19.9138 6.69345C19.8742 6.63302 19.7718 6.57786 19.607 6.52769C19.4423 6.47752 19.2312 6.4696 18.9742 6.50275L16.1253 6.52329C16.0594 6.51654 15.9935 6.5183 15.9273 6.52798C15.8614 6.53825 15.8186 6.54822 15.7986 6.5582C15.7787 6.56847 15.7625 6.57668 15.7492 6.58314L15.7096 6.61336C15.6766 6.63331 15.6405 6.66852 15.6009 6.71898C15.5613 6.76915 15.528 6.82753 15.502 6.89472C15.1921 7.70449 14.8394 8.45733 14.4436 9.15356C14.1996 9.56841 13.9752 9.92841 13.7711 10.2327C13.5667 10.5375 13.3953 10.7616 13.2568 10.9051C13.1183 11.0489 12.9928 11.1648 12.8809 11.2513C12.7688 11.3387 12.6829 11.3751 12.6239 11.3619C12.5644 11.3487 12.5083 11.3352 12.4557 11.3214C12.3634 11.2613 12.2888 11.1794 12.233 11.0756C12.177 10.972 12.1391 10.8414 12.1191 10.6842C12.0995 10.5269 12.0876 10.3914 12.0847 10.2775C12.0813 10.1637 12.083 10.0032 12.0896 9.79579C12.0963 9.58837 12.0995 9.44812 12.0995 9.37419C12.0995 9.12011 12.1044 8.84403 12.1145 8.54594C12.1243 8.24815 12.1327 8.01226 12.1391 7.83827C12.1457 7.66459 12.1489 7.48033 12.1489 7.28611C12.1489 7.09247 12.1373 6.9399 12.1142 6.8293C12.0911 6.71898 12.0564 6.61218 12.0104 6.50803C11.9642 6.40446 11.8965 6.32407 11.8075 6.26745C11.7184 6.21053 11.608 6.16535 11.4762 6.1319C11.1263 6.05151 10.6814 6.00838 10.1408 6.00134C8.91407 5.98843 8.12596 6.06882 7.77642 6.24251C7.63794 6.31644 7.51247 6.41649 7.40058 6.54382C7.28176 6.69111 7.26528 6.77179 7.35114 6.78441C7.74693 6.84485 8.02708 6.9889 8.19187 7.21628L8.25143 7.33657C8.2974 7.424 8.34366 7.57774 8.38991 7.79837C8.43617 8.0193 8.46566 8.2634 8.47896 8.53127C8.51192 9.01977 8.51192 9.43785 8.47896 9.78611C8.446 10.1344 8.41478 10.4052 8.385 10.5988C8.35522 10.793 8.3107 10.95 8.25143 11.0706C8.19187 11.1915 8.15255 11.2651 8.13261 11.2918C8.11266 11.3185 8.09647 11.3352 8.08317 11.342C7.9973 11.3751 7.90855 11.3921 7.81603 11.3921C7.72352 11.3921 7.61163 11.3452 7.47951 11.2513C7.34768 11.158 7.21064 11.0289 7.06897 10.8649C6.92702 10.7012 6.76743 10.4718 6.58905 10.1772C6.41096 9.88293 6.22622 9.53497 6.03512 9.13331L5.87698 8.84197C5.7781 8.65479 5.6428 8.38193 5.47136 8.02399C5.29992 7.66605 5.14813 7.31985 5.0163 6.98479C4.96339 6.84455 4.88447 6.73746 4.77894 6.66353L4.7295 6.63331C4.69655 6.60661 4.64364 6.57815 4.57107 6.54822C4.49822 6.51801 4.42276 6.49629 4.34354 6.4828L1.63315 6.50275C1.35618 6.50275 1.16826 6.56671 1.06939 6.69375L1.02978 6.75389C1.00983 6.78763 1 6.84132 1 6.91467C1 6.98861 1.01995 7.07868 1.05956 7.18547C1.45535 8.12932 1.88554 9.03943 2.35043 9.91579C2.8156 10.7927 3.2192 11.4989 3.56237 12.0341C3.90526 12.5698 4.25479 13.0748 4.61097 13.5501C4.96715 14.0254 5.20278 14.3296 5.31813 14.4634C5.43349 14.5975 5.52398 14.6978 5.59018 14.7647L5.83737 15.0059C5.99551 15.1664 6.22825 15.3588 6.5347 15.583C6.84144 15.8074 7.18086 16.0281 7.55352 16.2452C7.92589 16.4629 8.35985 16.6398 8.85422 16.7774C9.34889 16.9147 9.83025 16.9698 10.2983 16.9429H11.436C11.667 16.9229 11.8416 16.8496 11.9601 16.7219L11.9997 16.6718C12.026 16.6319 12.0509 16.5697 12.074 16.4863C12.0969 16.4027 12.1087 16.3106 12.1087 16.2102C12.1018 15.9224 12.1235 15.6628 12.1729 15.4322C12.2223 15.2013 12.2784 15.0273 12.3412 14.9099C12.4039 14.7932 12.4744 14.6943 12.5539 14.6139C12.6332 14.5335 12.689 14.4854 12.7222 14.4684C12.7552 14.4519 12.7818 14.4402 12.8014 14.4332C12.9596 14.3798 13.1458 14.4317 13.3603 14.5887C13.5745 14.7462 13.7757 14.9399 13.9636 15.1711C14.1516 15.402 14.3774 15.661 14.6413 15.9491C14.905 16.2369 15.1357 16.4508 15.3337 16.5914L15.5318 16.7122C15.6636 16.7923 15.835 16.866 16.0461 16.9332C16.2571 16.9998 16.4419 17.0168 16.6 16.9833L19.1323 16.9429C19.383 16.9429 19.5776 16.9012 19.716 16.8173C19.8545 16.7343 19.9369 16.6415 19.9632 16.5412C19.9895 16.4409 19.9913 16.3276 19.9681 16.2C19.945 16.0729 19.9219 15.9843 19.899 15.9342Z" fill="currentColor"/>
</svg>
