<svg width="24" height="24" viewBox="0 0 24 24" fill="none" xmlns="http://www.w3.org/2000/svg">
<path d="M21.8937 16.8373C21.8694 16.7825 21.8469 16.7368 21.8259 16.7003C21.4786 16.0432 20.8158 15.2363 19.8371 14.28L19.8161 14.2582L19.8058 14.247L19.7954 14.2364H19.7851C19.3408 13.7909 19.0596 13.4916 18.9418 13.338C18.7266 13.0464 18.6779 12.7507 18.796 12.4514C18.8797 12.2251 19.1919 11.747 19.7333 11.0166C20.0179 10.6299 20.2434 10.3198 20.4102 10.0855C21.611 8.40643 22.1314 7.33357 21.9719 6.86596L21.9093 6.7565C21.8676 6.69056 21.7598 6.63039 21.5864 6.57566C21.4129 6.52093 21.1907 6.51229 20.9202 6.54845L17.9214 6.57086C17.852 6.5635 17.7826 6.56542 17.7129 6.57598C17.6435 6.58718 17.5985 6.59806 17.5775 6.60895C17.5565 6.62015 17.5395 6.62911 17.5255 6.63615L17.4838 6.66912C17.4491 6.69088 17.411 6.72929 17.3693 6.78434C17.3276 6.83907 17.2926 6.90277 17.2653 6.97606C16.939 7.85944 16.5677 8.68073 16.1511 9.44024C15.8943 9.89282 15.6581 10.2855 15.4433 10.6174C15.2281 10.95 15.0476 11.1945 14.9019 11.351C14.7561 11.5079 14.624 11.6343 14.5062 11.7287C14.3882 11.8241 14.2978 11.8638 14.2357 11.8494C14.173 11.835 14.114 11.8202 14.0586 11.8052C13.9615 11.7396 13.883 11.6503 13.8243 11.537C13.7652 11.424 13.7253 11.2816 13.7043 11.11C13.6837 10.9385 13.6712 10.7906 13.6681 10.6664C13.6645 10.5422 13.6663 10.3672 13.6733 10.1409C13.6803 9.91458 13.6837 9.76159 13.6837 9.68093C13.6837 9.40376 13.6888 9.10257 13.6995 8.77739C13.7098 8.45252 13.7186 8.19519 13.7253 8.00539C13.7323 7.81591 13.7357 7.61491 13.7357 7.40303C13.7357 7.19178 13.7235 7.02535 13.6992 6.90469C13.6748 6.78434 13.6383 6.66784 13.5899 6.55421C13.5412 6.44123 13.47 6.35353 13.3763 6.29176C13.2826 6.22967 13.1663 6.18038 13.0275 6.14389C12.6593 6.05619 12.1909 6.00914 11.6218 6.00146C10.3306 5.98738 9.50101 6.07508 9.13308 6.26456C8.98731 6.34521 8.85523 6.45435 8.73745 6.59326C8.61238 6.75394 8.59503 6.84195 8.68542 6.85572C9.10204 6.92165 9.39693 7.0788 9.57039 7.32685L9.63308 7.45808C9.68147 7.55346 9.73016 7.72117 9.77886 7.96186C9.82755 8.20287 9.85859 8.46917 9.87259 8.76138C9.90728 9.29429 9.90728 9.75039 9.87259 10.1303C9.83789 10.5102 9.80503 10.8056 9.77368 11.0169C9.74234 11.2288 9.69547 11.4 9.63308 11.5316C9.57039 11.6634 9.529 11.7438 9.50801 11.7729C9.48701 11.802 9.46997 11.8202 9.45597 11.8276C9.36558 11.8638 9.27215 11.8823 9.17477 11.8823C9.07739 11.8823 8.95961 11.8311 8.82054 11.7287C8.68176 11.6269 8.53751 11.4861 8.38839 11.3072C8.23897 11.1286 8.07098 10.8783 7.88321 10.557C7.69575 10.2359 7.50129 9.85633 7.30013 9.41816L7.13366 9.10033C7.02958 8.89613 6.88716 8.59847 6.70669 8.20799C6.52623 7.81751 6.36646 7.43984 6.22769 7.07432C6.17199 6.92133 6.08891 6.80451 5.97783 6.72385L5.92579 6.69088C5.8911 6.66176 5.83541 6.63071 5.75902 6.59806C5.68233 6.5651 5.60291 6.54141 5.51952 6.52669L2.66647 6.54845C2.37493 6.54845 2.17712 6.61823 2.07304 6.75682L2.03135 6.82243C2.01035 6.85924 2 6.91781 2 6.99782C2 7.07848 2.021 7.17674 2.06269 7.29325C2.47931 8.3229 2.93215 9.31574 3.4215 10.2718C3.91116 11.2284 4.336 11.9988 4.69723 12.5826C5.05816 13.1671 5.42609 13.7179 5.80102 14.2364C6.17595 14.7549 6.42397 15.0868 6.5454 15.2328C6.66683 15.3791 6.76208 15.4885 6.83177 15.5615L7.09197 15.8246C7.25843 15.9997 7.50342 16.2096 7.826 16.4542C8.14889 16.699 8.50617 16.9397 8.89844 17.1765C9.29041 17.414 9.74721 17.607 10.2676 17.7571C10.7883 17.9069 11.295 17.9671 11.7877 17.9377H12.9852C13.2284 17.9159 13.4122 17.8359 13.537 17.6966L13.5787 17.6419C13.6064 17.5984 13.6325 17.5305 13.6569 17.4396C13.6809 17.3484 13.6934 17.2479 13.6934 17.1385C13.6861 16.8245 13.7089 16.5412 13.761 16.2896C13.813 16.0377 13.872 15.848 13.9381 15.7199C14.0041 15.5925 14.0784 15.4847 14.1621 15.397C14.2454 15.3093 14.3042 15.2568 14.3392 15.2382C14.3739 15.2203 14.4019 15.2075 14.4226 15.1998C14.589 15.1416 14.785 15.1982 15.0108 15.3695C15.2363 15.5413 15.4481 15.7526 15.6459 16.0048C15.8438 16.2567 16.0814 16.5393 16.3593 16.8536C16.6368 17.1676 16.8797 17.4009 17.0881 17.5542L17.2966 17.6861C17.4354 17.7735 17.6158 17.8538 17.838 17.9271C18.0602 17.9998 18.2546 18.0183 18.4211 17.9818L21.0867 17.9377C21.3505 17.9377 21.5553 17.8922 21.7011 17.8007C21.8469 17.7101 21.9336 17.609 21.9613 17.4995C21.989 17.39 21.9908 17.2665 21.9665 17.1273C21.9421 16.9887 21.9178 16.892 21.8937 16.8373Z" fill="#0077FF"/>
</svg>
