<svg width="24" height="24" viewBox="0 0 24 24" fill="none" xmlns="http://www.w3.org/2000/svg">
<path fill-rule="evenodd" clip-rule="evenodd" d="M11.9938 21.8281H11.9897C10.331 21.8276 8.70125 21.4114 7.25371 20.6218L2 22L3.40598 16.8645C2.5387 15.3615 2.08235 13.6566 2.08309 11.9099C2.08526 6.44562 6.53112 2 11.9937 2C14.6449 2.00114 17.1332 3.03324 19.0043 4.90654C20.8754 6.77974 21.9053 9.26968 21.9043 11.9177C21.9021 17.3807 17.458 21.8259 11.9938 21.8281ZM7.49721 18.8277L7.798 19.0062C9.06271 19.7567 10.5124 20.1539 11.9905 20.1544H11.9939C16.534 20.1544 20.2292 16.4591 20.231 11.9172C20.2319 9.71613 19.3759 7.6466 17.8207 6.08959C16.2655 4.53258 14.1973 3.67469 11.9971 3.67393C7.4535 3.67393 3.75826 7.36884 3.75646 11.9105C3.75582 13.4669 4.19131 14.9827 5.01587 16.2942L5.21173 16.6059L4.37959 19.6455L7.49721 18.8277ZM16.6474 14.0514C16.8201 14.1349 16.9368 14.1913 16.9866 14.2744C17.0485 14.3776 17.0485 14.8734 16.8422 15.452C16.6358 16.0304 15.6465 16.5583 15.1707 16.6294C14.7441 16.6932 14.2042 16.7198 13.611 16.5313C13.2513 16.4172 12.7901 16.2648 12.1993 16.0096C9.87782 15.0072 8.30897 12.7572 8.01246 12.332C7.99169 12.3022 7.97716 12.2813 7.96906 12.2705L7.96706 12.2678C7.83601 12.093 6.95792 10.9214 6.95792 9.70887C6.95792 8.56822 7.51823 7.97035 7.77613 7.69515C7.7938 7.67629 7.81005 7.65895 7.82461 7.64305C8.05158 7.39514 8.31988 7.33316 8.48495 7.33316C8.65002 7.33316 8.81528 7.33468 8.95956 7.34193C8.97736 7.34282 8.99588 7.34272 9.01502 7.3426C9.15933 7.34176 9.33924 7.3407 9.51671 7.76701C9.58499 7.93108 9.6849 8.17431 9.79027 8.43084C10.0034 8.94959 10.2388 9.52275 10.2802 9.6057C10.3421 9.72965 10.3834 9.87421 10.3008 10.0395C10.2885 10.0643 10.277 10.0877 10.266 10.1101C10.2041 10.2367 10.1584 10.3298 10.0532 10.4526C10.0119 10.5009 9.96909 10.553 9.92633 10.6051C9.84113 10.7088 9.75595 10.8126 9.68177 10.8865C9.5578 11.01 9.42875 11.1439 9.5732 11.3918C9.71765 11.6398 10.2146 12.4506 10.9508 13.1073C11.7421 13.8131 12.4299 14.1114 12.7785 14.2627C12.8466 14.2922 12.9017 14.3161 12.9422 14.3364C13.1897 14.4604 13.3342 14.4396 13.4787 14.2744C13.6231 14.1091 14.0977 13.5513 14.2627 13.3034C14.4278 13.0556 14.5929 13.0969 14.8199 13.1795C15.0469 13.2622 16.2644 13.8612 16.512 13.9851C16.5603 14.0093 16.6055 14.0312 16.6474 14.0514Z" fill="#2FAC5E"/>
</svg>
